<?xml version="1.0" encoding="utf-8"?>
<!-- Generator: Adobe Illustrator 16.0.1, SVG Export Plug-In . SVG Version: 6.00 Build 0)  -->
<!DOCTYPE svg PUBLIC "-//W3C//DTD SVG 1.1//EN" "http://www.w3.org/Graphics/SVG/1.1/DTD/svg11.dtd">
<svg version="1.1" id="Layer_1" xmlns="http://www.w3.org/2000/svg" xmlns:xlink="http://www.w3.org/1999/xlink" x="0px" y="0px"
	 width="32px" height="32px" viewBox="0 0 32 32" enable-background="new 0 0 32 32" xml:space="preserve">
<path fill="#FFFFFF" d="M15.999,0C7.163,0,0,7.165,0,16c0,8.835,7.164,16,16,16C24.836,32,32,24.836,32,16
	C32,7.165,24.836,0,15.999,0z M8.999,25c-1.104,0-2-0.893-2-1.998c0-1.1,0.896-2.002,2-2.002c1.107,0,2,0.902,2,2.002
	C10.999,24.107,10.106,25,8.999,25z M14.333,25c0-4.049-3.285-7.332-7.334-7.332V14C13.075,14,18,18.926,18,25H14.333z M21.25,25
	c0-7.869-6.381-14.25-14.251-14.25V7C16.941,7,25,15.059,25,25H21.25z"/>
</svg>
