<?xml version="1.0" encoding="utf-8"?>
<!-- Generator: Adobe Illustrator 16.0.1, SVG Export Plug-In . SVG Version: 6.00 Build 0)  -->
<!DOCTYPE svg PUBLIC "-//W3C//DTD SVG 1.1//EN" "http://www.w3.org/Graphics/SVG/1.1/DTD/svg11.dtd">
<svg version="1.1" id="Layer_1" xmlns="http://www.w3.org/2000/svg" xmlns:xlink="http://www.w3.org/1999/xlink" x="0px" y="0px"
	 width="32px" height="32px" viewBox="0 0 32 32" enable-background="new 0 0 32 32" xml:space="preserve">
<path fill="#FFFFFF" d="M16,32c8.836,0,16-7.164,16-15.999C32,7.164,24.836,0,16,0C7.164,0,0,7.164,0,16.001
	C0,24.836,7.164,32,16,32z M12.795,17.106c-1.381,0.164-2.148-0.634-2.461-1.314c0.322-0.367,0.679-0.541,1.369-0.588
	c-1.51-0.388-2.067-1.193-2.239-2.168c0.419-0.109,0.945-0.205,1.229-0.162c-1.323-0.752-1.781-1.885-1.708-2.737
	c2.365,0.956,3.87,1.723,5.131,2.457c0.449,0.262,0.949,0.73,1.514,1.327c0.719-2.07,1.609-4.203,3.132-5.261
	c-0.025,0.239-0.145,0.462-0.301,0.647c0.434-0.427,0.992-0.721,1.562-0.806c-0.064,0.466-0.682,0.727-1.053,0.879
	c0.281-0.094,1.779-0.823,1.941-0.407c0.195,0.468-1.033,0.688-1.24,0.769c-0.156,0.058-0.312,0.12-0.465,0.188
	c1.898-0.206,3.711,1.499,4.238,3.613c0.037,0.154,0.076,0.323,0.113,0.5c0.691,0.283,1.949-0.014,2.354-0.284
	c-0.293,0.754-1.055,1.309-2.176,1.41c0.541,0.246,1.561,0.38,2.264,0.25c-0.445,0.521-1.162,0.991-2.387,0.98
	C21.984,23.594,11.036,26.648,6,19.178c1.93,2.004,5.289,2.182,7.419-0.217C12.169,19.16,11.26,17.826,12.795,17.106z"/>
</svg>
