<?xml version="1.0" encoding="utf-8"?>
<!-- Generator: Adobe Illustrator 16.0.4, SVG Export Plug-In . SVG Version: 6.00 Build 0)  -->
<!DOCTYPE svg PUBLIC "-//W3C//DTD SVG 1.1//EN" "http://www.w3.org/Graphics/SVG/1.1/DTD/svg11.dtd">
<svg version="1.1" id="Layer_1" xmlns="http://www.w3.org/2000/svg" xmlns:xlink="http://www.w3.org/1999/xlink" x="0px" y="0px"
	 width="951.1px" height="473.051px" viewBox="0 0 951.1 473.051" enable-background="new 0 0 951.1 473.051" xml:space="preserve">
<path opacity="0.5" fill-rule="evenodd" clip-rule="evenodd" fill="#939090" d="M649.754,11.928
	c-2.187-0.459-4.999-2.362-7.166-0.581c-1.023-4.627-3.096,0.517-3.679,2.131C642.479,13.011,646.505,13.925,649.754,11.928
	C647.436,11.441,649.61,11.988,649.754,11.928C647.63,11.482,649.754,11.928,649.754,11.928z"/>
<path opacity="0.5" fill-rule="evenodd" clip-rule="evenodd" fill="#939090" d="M926.892,423.277
	c-0.151-1.33,0.364-2.234,1.551-2.713c-4.143-0.557-10.626,7.469-14.336,9.232c-5.277,2.508-16.106,4.527-18.395,10.717
	c9.571,1.617,11.542-2.496,19.352-7.006c5.123-2.961,12.225-5.441,15.896-11.199C929.475,422.055,927.203,423.109,926.892,423.277
	C927.28,421.363,926.892,423.277,926.892,423.277z"/>
<path opacity="0.5" fill-rule="evenodd" clip-rule="evenodd" fill="#939090" d="M581.39,320.248
	c-2.029-0.541-1.519,5.359-4.261,4.648c-1.248,1.68-0.159,6.766-1.744,4.064c-1.993,2.541-2.337,1.25-3.421,3.496
	c0.285,1.621-0.638,2.145-2.77,1.566c-5.513,0.83-2.494,1.643-5.234,5.396c1.902,9.062-2.934,15.131-1.977,23.744
	c0.394,3.547,4.521,4.625,7.4,3.564c3.907-1.441,5.33-6.152,6.412-9.725c0.773-2.555,7.982-23.957,6.581-24.342
	c0.492,0.404,1.003,0.785,1.53,1.141C585.475,329.354,584.13,322.873,581.39,320.248C581.135,320.18,581.39,320.248,581.39,320.248z
	"/>
<path opacity="0.5" fill-rule="evenodd" clip-rule="evenodd" fill="#939090" d="M785.321,306.109
	c0.709,0.775,1.42,1.551,2.129,2.326c3.216-5.564-5.384-1.572-7.166-4.842c0.644-2.02,3.077-0.508,4.262-2.135
	c-3.115-0.082-6.187-0.615-9.296-0.771c-0.013-0.053-6.926,0.252-7.762-0.188c-5.564-2.936-7.013-2.6-10.829,0.381
	c5.672,6.215,21.507,5.248,29.05,7.357C782.212,304.051,786.077,307.418,785.321,306.109
	C786.214,306.725,785.321,306.109,785.321,306.109z"/>
<path opacity="0.5" fill-rule="evenodd" clip-rule="evenodd" fill="#939090" d="M755.108,296.619
	c2.059,1.373,1.35,0.219,3.487,1.357c0.856-3.113,0.751-6.289,0.37-9.455c-0.516-4.326-2.878-2.465-3.851-6.289
	c-0.35-1.373-3.867-2.007-3.015-3.744c1.048-2.13,1.231-2.092-1.006-3.878c-4.265-3.4-8.942-5.363-12.805-9.314
	c-1.645-1.685-3.003-5.142-4.895-6.187c-2.383-1.312-5.204-0.979-7.724-1.804c0.685,7.624,11.053,9.365,12.484,16.632
	c1.817,9.226,11.55,16.75,17.146,24.232C753.615,292.848,755.471,297.785,755.108,296.619
	C758.459,298.854,755.108,296.619,755.108,296.619z"/>
<path opacity="0.5" fill-rule="evenodd" clip-rule="evenodd" fill="#939090" d="M813.403,246.072
	c-2.073,0.2-5.801,6.691-3.681,6.586c-0.059-1.396,0.521-2.429,1.743-3.099c0,2.235,1.939,0.204,2.325-0.192
	c2.466,1.127,4.269,6.969,6.197,7.939c1.47-1.033,0.452-5.262,0.969-6.2c2.714,6.828,2.07,2.065,2.008-0.974
	c-0.057-2.831-0.72-6.95-3.944-7.934c0.506,3.232-1.354,3.508-4.262,6.003C814.761,249.253,813.321,245.444,813.403,246.072
	C811.122,246.293,813.403,246.072,813.403,246.072z"/>
<path opacity="0.5" fill-rule="evenodd" clip-rule="evenodd" fill="#939090" d="M805.075,211.406
	c-0.119,1.628-4.019-0.532-4.842-0.193c-0.273,1.663,1.979,11.266-1.163,7.747c-0.317,3.051,4.076,7.895,3.101,5.617
	c3.304,0.122-1.863,2.977,1.588,3.563c2.622,0.445,7.107,4.61,4.803-0.465c1.547,1.811,3.1,4.123,5.422,5.035
	c0.856-1.912-2.445-5.369-3.098-5.615c-1.169,2.978-0.525-2.678-3.645-0.722c-0.45,0.283,1.244,0.954,0.157,1.302
	c-1.179-0.543-3.418-7.498-2.348-7.686C808.521,219.38,805.836,213.543,805.075,211.406
	C804.941,213.242,805.075,211.406,805.075,211.406z"/>
<path opacity="0.5" fill-rule="evenodd" clip-rule="evenodd" fill="#939090" d="M189.407,206.759
	c3.672-0.947,8.193,1.11,11.426-1.549c-2.727-2.125-4.312-2.338-6.377-3.304c-2.522-1.179-3.767-4.391-6.792-4.638
	c1.349,0.449,2.382,1.288,3.098,2.518c-3.028-1.435-21.856-10.137-22.464,0c3,0.751,6.456-4.584,10.458-2.518
	c-1.503,1.521,4.439,2.902,5.97,3.189c2.489,0.466,3.638,4.071,6.424,3.202c1.726,1.741-4.602,3.837-0.062,2.667
	C190.646,206.439,189.88,206.817,189.407,206.759C192.951,205.845,189.407,206.759,189.407,206.759z"/>
<path opacity="0.5" fill-rule="evenodd" clip-rule="evenodd" fill="#939090" d="M405.927,95.593
	c3.756-0.24,14.477-3.055,10.265-8.715c2.73,0.719,0.949-3.281,0.098-4.034c-2.061-1.822-8.064,0.857-4.94,2.292
	c-1.451,1.264-3.675,1.373-5.423,1.937c4.66,1.569-4.768,1.291,2.905,2.517c-3.193,1.717-3.839,2.493-1.937,2.325
	c-0.733,0.313-1.457,0.645-2.171,0.996c-0.791,0.674,1.235,0.232,1.203,0.553c-2.352,0.071,0.313,2.11,1.737,2.019
	C407.143,95.515,406.45,95.69,405.927,95.593C409.417,95.37,405.927,95.593,405.927,95.593z"/>
<path opacity="0.5" fill-rule="evenodd" clip-rule="evenodd" fill="#939090" d="M416.385,75.646c0.84,0.322,1.679,0.646,2.519,0.968
	c-0.667,0.889-1.313,1.793-1.937,2.712c4.556,0.153,1.387-0.82-0.582,1.937c1.296-0.458,3.715-2.599,1.744,1.354
	c5.403-5.32-0.435,6.587,6.391,0.968c-1.047,2.704,2.235,2.725,0.016,4.821c-2.767,2.617-5.646-0.55-2.858,3.025
	c0.743,0.954-3.111,2.33-3.355,2.42c2.078,2.203,4.093,0.215,6.973,1.354c-3.102,0.494-7.125,2.363-8.715,5.229
	c2.298-2.18,8.847-1.62,11.751-1.969c1.874-0.224,3.793-0.46,5.604-1.016c3.362-1.031,1.781-1.081,0.656-2.05
	c3.976-1.944,1.078-7.371-1.162-4.454c-3.375-0.647-1.623-12.651-8.521-10.846c1.785-1.49,3-3.078,4.26-5.035
	c-1.847-0.778-3.719-0.844-5.616-0.195c1.194-0.971,2.163-2.133,2.905-3.486c-4.215,0.041-5.98,0.84-7.747,4.649
	C415.938,74.782,417.852,75.72,416.385,75.646C417.152,76.162,416.385,75.646,416.385,75.646z"/>
<path opacity="0.5" fill-rule="evenodd" clip-rule="evenodd" fill="#939090" d="M236.274,55.311c1.936-0.101,3.872-0.166,5.81-0.193
	c-0.558-1.732-1.656-2.12-3.292-1.163c0.656-0.315-1.968-6.95-5.064-5.541c-2.379,1.083-8.121,4.855-9.074,7.284
	c3.873-1.459,4.841-1.007,2.905,1.356c3.168-0.082,5.293-2.726,8.373-3.083C236.565,53.878,236.08,55.678,236.274,55.311
	C238.107,55.081,236.274,55.311,236.274,55.311z"/>
<path opacity="0.5" fill-rule="evenodd" clip-rule="evenodd" fill="#939090" d="M380.75,53.955
	c-0.325,0.45,12.981,0.945,14.823,0.51c0.563-0.132,10.574-4.154,7.362-5.37c-0.648-0.245-4.045-1.021-1.268-2.306
	c-4.637,0.28-14.085-0.083-16.269,3.487c-0.53-3.547-3.406-2.689-3.098-2.519c-1.093,0.899-4.219,0.108-4.649,1.937
	c2.01-0.224,4.012-0.159,6.004,0.195c-1.83,0.438-3.637,0.954-5.422,1.549c1.141,1.921,3.806,0.138,4.842,2.324
	C382.3,53.826,381.524,53.89,380.75,53.955C379.51,55.672,380.75,53.955,380.75,53.955z"/>
<path opacity="0.5" fill-rule="evenodd" clip-rule="evenodd" fill="#939090" d="M163.843,31.102
	c-0.128,0.516-0.258,1.033-0.387,1.549c7.004-0.005,12.826-4.815,19.753-5.229c-2.299,0.509-7.006,1.977-8.521,3.874
	c1.961-0.753,0.869-0.085,0.774,0.583c1.744-0.057,3.486-0.122,5.229-0.195c-2.147,0.78-5.286-0.273-6.973,1.744
	c3.392,1.727,8.67-1.067,12.395,1.549c-3.914,0.412-8.198-0.651-12.02,0.489c-5.97,1.78,3.897,2.916,4.079,2.997
	c-0.369,0.721-0.755,1.431-1.161,2.131c6.289-0.062,12.615-0.893,18.591-2.905c-1.248,1.248,8.268,3.595,10.265-0.195
	c-0.981-0.129-1.949-0.323-2.905-0.581c2.234-0.037,5.622,0.768,7.165-1.549c-1.723-0.475-4.377-0.799-5.229-2.712
	c1.944-0.522,4.17-3.954,3.062-5.916c-2.373-4.205-6.477,4.677-8.872,3.979c2.994-3.287-2.093-5.051-1.163-2.13
	c-1.176-0.018-2.338,0.112-3.485,0.388c4.359-2.442-5.191-0.949-5.617-0.969c0.895-0.099,1.751-0.324,2.572-0.674
	c-0.301,0.248-7.084-0.09-7.995-0.294c2.088-0.271,4.153-0.659,6.198-1.163c-0.334-3.229-9.851-3.052-11.987-3.059
	c-6.166-0.019-11.713,4.678-16.87,7.513C158.175,30.764,164.883,31.08,163.843,31.102C163.816,31.645,163.843,31.102,163.843,31.102
	z"/>
<path opacity="0.5" fill-rule="evenodd" clip-rule="evenodd" fill="#939090" d="M219.038,25.68c0.452,0.322,0.904,0.646,1.356,0.968
	c-1.176,0.25-5.542-0.375-6.038,1.26c-1.301,4.294,11.621,5.656,13.01-0.099c-0.757-0.214-1.468-0.537-2.13-0.968
	c1.016-0.066,4.352-0.452,4.648-1.742c-1.672-0.284-1.802-0.671-0.388-1.163C226.195,24.335,219.96,26.069,219.038,25.68
	C219.307,26.254,219.038,25.68,219.038,25.68z"/>
<path opacity="0.5" fill-rule="evenodd" clip-rule="evenodd" fill="#939090" d="M556.603,32.651
	c-2.312,0.269,0.692-0.05-0.777,0.775c2.527,0.625,7.402,2.177,9.684,0.193c-2.467-0.274-6.201-2.2-6.241-5.126
	c-0.008-0.565,3.534-5.526,3.529-5.525c1.14,0.635,16.554-4.676,17.817-5.81c-3.385-4.154-21.007,2.907-24.98,3.873
	c-0.126,0.793,1.228,0.945,1.938,1.356c-1.994,0-2.684,2.251-4.651,2.712c2.147,0.754-0.731,3.765-2.517,4.647
	C550.896,33.225,554.955,30.521,556.603,32.651C554.605,32.883,556.603,32.651,556.603,32.651z"/>
<path opacity="0.5" fill-rule="evenodd" clip-rule="evenodd" fill="#939090" d="M240.923,16.77
	c-2.688,0.343,5.605,2.031,5.596,2.043c-0.933,1.248-2.752,1.724-2.884,3.574c2.316,0.467,5.131,0.93,7.359-0.193
	c-1.373,0.591,8.527,0.885,10.475,0.836c1.724-0.044,10.217,0.269,10.248-2.772c-4.206-1.024-9.54,0.44-13.817,0.577
	c-1.644,0.054-3.567,0.187-5.168-0.328c-2.601-0.836,0.656-1.977,1.361-2.573C250.069,18.635,244.216,15.552,240.923,16.77
	C237.884,17.159,240.923,16.77,240.923,16.77z"/>
<path opacity="0.5" fill-rule="evenodd" clip-rule="evenodd" fill="#939090" d="M731.618,18.563
	c-0.613,0.501-0.272,0.937,1.025,1.307c-2.395-0.292-6.336-3.141-8.521-0.775c2.235,4.336,15.245,5.149,18.398,1.744
	c-0.101,0.38-0.101-1.155,0-0.775C738.93,19.267,735.247,19.104,731.618,18.563C731.149,18.446,731.618,18.563,731.618,18.563z"/>
<path opacity="0.5" fill-rule="evenodd" clip-rule="evenodd" fill="#939090" d="M202.964,17.545c-2.057-0.096-12.289,1-7.36,2.712
	c-1.582-0.301-3.067-0.042-4.454,0.773c3.773,2.337,8.541-1.701,12.588,0.388c-2.673,0.108-5.32,0.432-7.94,0.969
	c4.375,2.848,20.016,0.958,23.24-3.293c-2.062-2.27-6.455,2.708-2.905-2.517c-4.767,0.224-6.33,1.974-5.035,3.292
	c-5.125,0.625-5.189-2.188-9.667-2.395C201.921,17.497,202.48,17.446,202.964,17.545C199.549,17.387,202.964,17.545,202.964,17.545z
	"/>
<path opacity="0.5" fill-rule="evenodd" clip-rule="evenodd" fill="#939090" d="M223.493,20.257c1.994-0.3,3.995-0.364,6.003-0.195
	c-1.332-0.224-2.236,0.292-2.711,1.549c4.321,0.782,7.973-0.87,10.652-4.259c-2.245,0.641-5.854-2.083-7.747,0
	c1.176,0.032,1.562,0.613,1.163,1.742c-2.319-2.104-5.228-0.021-7.747,0.195C223.295,19.333,224.832,21.267,223.493,20.257
	C225.486,19.958,223.493,20.257,223.493,20.257z"/>
<path opacity="0.5" fill-rule="evenodd" clip-rule="evenodd" fill="#939090" d="M236.468,13.284
	c0.384-0.459,3.829,0.735,4.648-1.356c-1.523-2.024-8.587-3.178-10.264-0.968c1.04,0.252,1.245,0.271,0.615,0.054
	c-0.99,0.979-0.356,1.09,1.902,0.334c-1.033,0.13-1.033,0.26,0,0.388c-0.15-0.009-2.407,0.029-3.68,0.775
	C231.153,13.288,235.452,13.123,236.468,13.284C235.934,13.923,236.468,13.284,236.468,13.284z"/>
<path opacity="0.5" fill-rule="evenodd" clip-rule="evenodd" fill="#939090" d="M475.066,8.83c4.574,2.658,13.399,2.84,17.817-0.193
	c-4.668-1.892-10.366-0.435-15.3-1.356c0.412,1.537-1.211,0.292-3.292,0.968C477.106,8.553,475.11,8.86,475.066,8.83
	C478.51,10.831,475.066,8.83,475.066,8.83z"/>
<path opacity="0.5" fill-rule="evenodd" clip-rule="evenodd" fill="#939090" d="M622.641,9.023c0.285-0.839,0.802-1.032,1.549-0.581
	c-0.687,0.392-1.333,0.844-1.937,1.356c5.082,0.057,10.013,2.791,15.105,1.161c-1.311-0.454-6.001-4.793-6.971-1.937
	c-0.095-2.398-5.37-0.329-1.938-2.322c-3.41-0.644-7.457-2.352-10.651,0c3.113,1.172-3.546-0.521,0.775,1.354
	C612.817,9.211,622.054,9.172,622.641,9.023C622.744,8.58,622.641,9.023,622.641,9.023z"/>
<path opacity="0.5" fill-rule="evenodd" clip-rule="evenodd" fill="#939090" d="M252.543,9.606
	c-0.943-0.056,4.154,0.221,5.229,0.581c-0.774,0.127-0.774,0.257,0,0.388c-1.666-0.241-3.28-0.048-4.842,0.581
	c3.106,4.295,15.039-0.3,19.561-0.775c0.378-1.557-1.422-0.165-1.549-1.162c3.473-0.972-0.525,1.531,4.648,2.13
	c-2.98,0.017-18.169,0.493-7.747,2.131c-3.063,0.011,0.728,1.139,1.162,1.549c-4.133-0.108-6.467-2.587-7.554,0.581
	c-1.405,0.156-8.708,0.938-8.715,1.549c2.663,0.36,19.989-0.842,18.012,1.356c2.731-0.677,6.9,0.321,8.715-2.517
	c-1.738,1.038-2.448,0.844-2.13-0.581c0.688,0.003,5.7-1.199,4.067-1.744c1.898,0.178,13.755-0.867,7.165-2.905
	c1.249-0.467,8.524,0.415,1.162-0.581c5.183,0.96,10.686-0.635,15.628-2.044c2.185-0.64,4.37-1.277,6.556-1.911
	c1.876-0.531,7.243-0.196,4.735-1.662c3.24-0.18,6.666-0.146,9.684-1.549c-2.59-2.747-9.486-1.616-12.802-1.505
	c-2.129,0.071-15.486,0.033-14.892,0.925c-9.526-2.369-22.682,1.244-32.149,2.325c1.352,0.252,2.708,0.465,4.071,0.638
	c-0.49-0.043-2.833-0.338-2.715,0.716c6.363,0.935,12.869-0.913,19.173,0.775c-1.751,0.367-3.523,0.541-5.313,0.521
	c-2.856-0.297-3.384,0.276-1.585,1.716c0.636-2.329-11.064-0.504-10.726,0.087c0.883-0.265,1.271-0.845,1.162-1.744
	c-1.643-0.817-2.464,0.011-4.485-0.668c-2.492-0.839-9.744-3.067-8.103,0.281c-0.434-0.01-7.762,1.242-3.486,1.163
	c-0.888-0.074-1.765-0.019-2.63,0.165C252.149,7.693,252.392,10.019,252.543,9.606C249.893,9.449,252.543,9.606,252.543,9.606z"/>
<path opacity="0.5" fill-rule="evenodd" clip-rule="evenodd" fill="#939090" d="M377.458,34.976
	c0.176-0.671,5.422-1.686,2.905-3.293c1.764-0.352,2.887,1.87,4.007,2.738c0.628,0.487,2.907-0.166,3.849-0.16
	c1.719,0.01,1.019-4.959-0.496-2.19c-0.798-0.931,1.321-0.706,1.356-1.356c-2.862-0.943-6.135-4.064-7.166-4.066
	c1.872-0.438,3.744-0.438,5.616,0c-3.973-0.697-3.871-1.059,0.303-1.087c2.249,0.034,4.472-0.185,6.67-0.656
	c-1.301-0.578-2.656-0.771-4.067-0.581c1.261-2.267,4.501,1.67,4.067-1.161c1.152,0.85,2.25,0.785,3.292-0.195
	c-0.035-0.032-3.315-1.175-2.905-1.742c0.38-1.515,2.688,1.168,2.873-1.058c0.248-2.999-2.872-2.008-5.197-3.203
	c2.896-1.289,6.83,1.242,9.296-1.356c-1.575-0.287-3.124-0.674-4.648-1.162c1.162,0.064,2.324,0.129,3.486,0.193
	c-1.223-2.369-4.082-0.644-5.81-0.388c2.093-2.113,7.59-3.217,6.197-4.646c1.006-0.157,11.711-2.843,5.81-2.712
	c3.717-0.055,7.302-1.129,10.845-2.129c-7.137-3.014-15.557,1.033-22.659,1.549c1.614-0.322,2.97-1.097,4.067-2.324
	c-2.386-1.401-5.104,0.956-7.014-0.078c-2.397-1.296-6.671-0.074-9.254,0.078c6.03-0.969,12.272,0.407,18.205-1.356
	c-8.208-1.991-16.724-2.659-25.152-2.631c-3.702,0.011-7.403,0.168-11.093,0.457c-1.23,0.097-15.271,1.268-8.104,1.982
	c-1.614-0.052-3.228-0.052-4.842,0c1.067,1.561,3.624,0.066,4.454,1.937c-3.669-0.651-7.266-1.829-11.038-1.744
	c0.123,3.1-1.983,0.547-4.16,0.213c-0.02-0.004-0.988,1.562-2.339,1.445c-10.433-0.903-19.573,1.145-29.717,3.572
	c1.357,0.658,2.777,0.852,4.261,0.581c-5.789,4.918-14.222,1.052-20.529,4.649c3.667,2.249,7.948,1.609,12.008,1.549
	c-3.82,1.45-8.059-0.214-11.813,1.549c1.306,0.532,2.662,0.854,4.067,0.968c-4.7,2.098,4.378,1.348,5.422,0.968
	c0.451-0.688,11.193,0.633,14.137,1.937c-0.677,0.664,3.487,6.144-0.851,3.744c0.906,0.501,4.59,4.091,1.239,3.035
	c1.769,1.339,1.392,1.532-0.968,1.937c1.003,1.49,0.357,2.2-1.937,2.131c1.325,2.478,4.181,0.318,5.81-0.195
	c-1.824,0.972,1.202,0.503,1.549,0.388c-4.156,1.404,0.062,2.233,1.162,3.681c-2.351-1.038-4.804-1.425-7.359-1.164
	c1.043,4.083,6.812-0.303,5.422,3.681c0.837-0.89,1.173-0.837,1.01,0.16c-0.236,0.47-14.834,9.361-8.95,7.78
	c-6.415,2.659,0.579,15.256,2.13,19.562c2.926-1.446,5.146,0.623,7.36,0.773c-0.436,0.183-0.824,0.441-1.162,0.776
	c3.496,4.661,10.74-3.565,10.004-7.443c0.076,0.401,10.866-7.196,6.652-7.47c0.563-2.602,8.086-2.587,9.876-4.454
	c0.056,0.011-1.869,1.876-1.549,2.325c4.775-0.701,13.884-3.86,16.509-8.696c-1.014,1.866,8.278,0.776,9.417,0.489
	c5.28-1.333,10.313-3.45,15.325-5.544C384.425,35.703,379.09,34.52,377.458,34.976C377.541,34.663,377.458,34.976,377.458,34.976z"
	/>
<path opacity="0.5" fill-rule="evenodd" clip-rule="evenodd" fill="#939090" d="M847.295,421.34
	c-0.276,0.057-0.688,0.406-1.621,3.535c-0.83,2.793-2.468,9.689,2.396,5.182c0.151,2.471,2.538-1.438,2.517-0.582
	c-0.508-0.273-0.766-0.078-0.775,0.582c2.453,0,2.096-3.396,4.068-3.293c0.343-2.037,2.711-3.158,2.322-5.424
	C853.214,422.777,848.896,422.801,847.295,421.34C848.108,421.178,847.295,421.34,847.295,421.34z"/>
<path opacity="0.5" fill-rule="evenodd" clip-rule="evenodd" fill="#939090" d="M894.163,368.471
	c1.263-0.986,1.844-2.275,1.741-3.875c-2.042,6.854-6.64-8.814-6.391-8.715c0.652,3.939-1.734-3.551-1.937,0.773
	c-2.318-1.367-0.494-5.893-1.888-7.674c-1.854-2.375-4.535-3.824-6.341-6.148c-1.816-2.336,1.077-10.521-1.021-13.754
	c-1.861-2.863-3.428,1.576-4.562-2.895c-0.928-3.662-0.648-7.498-1.486-11.166c-4.549-0.088-5.197,15.039-6.044,18.096
	c-4.044,14.568-8.547-0.9-13.71-0.859c0.164,0.955-0.157,1.213-0.969,0.775c-0.18,0.055-4.17-4.586-0.194-7.361
	c-0.494-0.703,3.336-6.607,0.858-5.979c-1.369,0.348-1.721,2.482-0.858-1.379c-2.408,3.533-9.78,0.609-10.457-2.326
	c-0.182,1.562-2.031-0.121-2.518,1.166c0.7,1.305,3.659-0.234,2.387,2.307c-1.091,2.178-3.556-0.373-4.644,1.184
	c-1.426,2.041-3.841,3.148-5.188,5.301c-0.756,1.115-0.921,2.316-0.497,3.6c-0.488,1.148-0.902,1.027-1.241-0.363
	c-0.234,0.486-0.4,0.996-0.501,1.527c0.335-3.568-2.892,0.264-3.487,0.193c0.212-2.541-0.352-4.455-3.098-5.23
	c-3.723,2.004-0.832,0.039-3.486,3.1c0.027-1.445-3.273-1.246-1.743,1.938c-1.163-1.059-4.806,1.59-2.905,3.293
	c-5.511-1.34-1.53,3.451-4.066,4.646c-0.109-4.094-0.99-4.582-2.644-1.465c-0.882,1.4-1.691,2.84-2.429,4.322
	c-1.957,3.59-4.573,5.715-8.529,6.604c-1.375,0.307-7.889,0.574-8.67,1.771c-1.668,0.947-12.188,8.666-8.91,4.455
	c-2.793,2.062-2.336,16.238-3.485,16.463c-0.093-0.674-0.681-2.793-1.161-3.293c-1.252,1.25,1.882,3.279-0.195,3.873
	c-0.58-1.314-1.03-2.668-1.355-4.068c1.113,8.346,7.113,23.451-1.591,29.521c-3.398,2.371,5.173,4.752,6.952,4.283
	c5.568-1.465,9.678-3.023,15.444-3.865c10.267-1.5,21.056-12.428,31.636-6.662c3.726,2.031,3.477-0.42,3.994,3.799
	c0.49,3.982,1.129,4.414,2.828,7.01c-1.845-2.492,7.134-6.865,8.327-8.326c-0.85,4.213-5.145,5.59-6.972,9.1
	c2.996-0.096,3.598-1.967,5.422-3.873c0.956,2.295-0.762,3.738-2.129,5.23c6.072,1.139-0.189,5.367,3.291,8.521
	c1.67-0.424,4.117,1.123,5.613,1.617c3.59,1.182,4.329-2.322,7.362-2.197c0.03,1.094-0.485,1.547-1.549,1.354
	c-0.178,1.551,3.56,1.039,3.293,2.906c1.615-0.512,4.028-3.41,8.008-4.061c5.844-0.957,6.286-3.117,9.292-7.836
	c2.789-4.381,8.728-7.568,12.215-11.578c4.468-5.137,8.781-11.322,9.992-18.164C891.522,375.297,894.482,368.994,894.163,368.471
	C895.43,367.477,894.163,368.471,894.163,368.471z"/>
<path opacity="0.5" fill-rule="evenodd" clip-rule="evenodd" fill="#939090" d="M880.025,290.422
	c-7.307-1.268-15.111-9.657-22.854-6.971c-0.14,0.82-4.974,5.498-5.524,5.441c-1.197-0.123-1.67-3.883-2.996-1.957
	c-2.018-3.598,0.902-7.98-5.401-8.449c-2.54-0.189-3.065,2.615-4.862,2.835c0.521-1.813-1.189-1.238-2.132-1.359
	c2.385,5.021,8.418,3.638,10.847,5.617c-1.396-0.256-5.216,0.209-6.197,1.355c0.822,0.125,4.602,5.432,4.842,5.037
	c-0.813-0.992-0.685-1.896,0.388-2.711c0.15,2.621,6.534,4.055,8.4,4.652c5.449,1.74,5.237,4.879,7.091,9.482
	c-2.156-1.191-4.066,1.975-3.872,3.68c5.674-1.6,6.616,1.215,11.541,2.365c2.122,0.496,8.821,0.205,4.339-2.943
	c1.844,0.953,3.457-0.496,3.485-2.326c2.768,2.5,7.758-0.752,8.135,4.842c2.108,2.816,8.636,7.557,12.396,5.617
	c-1.464-0.91-1.271-1.361,0.58-1.354c-3.052,0.377-2.434-1.234-2.324-2.135c-1.621-0.135-2.75-3.482-3.485-1.998
	c2.266-4.58-10.529-4.703-2.324-8.457c-0.343-3.361-4.161-3.162-6.391-4.455c0.849-2.723-3.07-5.703-5.27-6.086
	C878.945,290.236,879.531,290.26,880.025,290.422C872.704,289.152,880.025,290.422,880.025,290.422z"/>
<path opacity="0.5" fill-rule="evenodd" clip-rule="evenodd" fill="#939090" d="M797.715,273.768
	c0.562,0.513,3.19,0.991,2.907-0.583c-3.761-2.425-4.129-8.257-5.425-8.908c1.483,0.004,1.87-0.56,1.167-1.69
	c-0.995-1.646-0.093-1.985,2.706-1.021c0.175-1.526-1.224-0.726-1.549-1.937c1.31-0.84,3.216,0.604,3.486-1.743
	c-3.56,0.249-7.747-5.368-8.328-5.811c-1.947,5.22-4.565,6.185-6.914,8.469c-1.674,1.629-2.941,3.658-4.83,5.069
	c-1.395,1.042-2.966,1.565-4.717,1.569c0.107,1.611-0.149,3.158-0.774,4.649c-0.113-2.38-5.596-1.841-6.337,0.223
	c-0.694,1.938,0.915,8.208,1.496,9.653c4.091-2.044-1.05,9.422,7.164,5.424c0.614,5.924,9.442-2.184,8.715,4.842
	c1.046-0.498,5.381-4.043,4.454-0.582c1.64,0.443,1.256-7.559,0.97-8.133c2.105-0.994,4.28-2.971,4.044-4.821
	C795.682,276.347,796.831,274.267,797.715,273.768C798.261,274.267,797.715,273.768,797.715,273.768z"/>
<path opacity="0.5" fill-rule="evenodd" clip-rule="evenodd" fill="#939090" d="M681.517,246.847
	c-0.303-1.02-4.537-6.487-4.438-3.574c0.129,3.79,0.08,7.954,1.218,11.603c1.003,3.21,5.122,0.371,4.918-2.207
	C683.101,251.231,681.337,246.448,681.517,246.847C681.121,245.516,681.517,246.847,681.517,246.847z"/>
<path opacity="0.5" fill-rule="evenodd" clip-rule="evenodd" fill="#939090" d="M834.899,154.468c3.693-0.511,3.221-2.572,5.036,0
	c1.519,0.07,0.229-1.748,0.388-2.324c2.413,0,0.311,0.174,1.354-1.356c1.021-0.122,0.533,2.026,1.163,2.517
	c1.793-3.808,0.317-8.855-2.132-12.006c3.796,0-2.993-10.7-6.583-11.427c-0.432,3.446,1.533-0.527,1.937,2.324
	c-0.965-0.607-1.997-1.059-3.1-1.356c-0.462,3.859,3.281,6.387,2.557,10.628c-0.424,2.482-2.104,6.567-5.074,3.704
	c0.753-0.049,1.01-0.437,0.775-1.163c-2.294-0.088-1.825,5.345-0.969,6.391c-0.558,1.522-6.689,0.557-7.885,0.682
	c-2.686,0.279-9.732,10.474-5.286,9.777c-0.346,0.802-0.217,1.512,0.388,2.129c0.477-0.528-0.283-3.574-0.58-3.486
	c3.047,1.785-0.153,6.177,3.681,7.166c-0.26-0.516-0.517-1.032-0.775-1.549c0.537,2.462,1.146,2.826,1.828,1.088
	c0.744-1.534,1.308-3.551,0.946-5.265c-0.532-2.513-4.47-2.547-4.712-4.538c1.334-0.08,2.56,0.243,3.681,0.968
	c-0.602-2.149,3.354-2.818,5.479-3.326c3.915-0.933,2.364,3.91,5.946,4.487c0.17-1.133-0.008-3.408,1.937-2.905
	c0.036-0.241-2.845-2.818-1.161-2.905C833.761,153.175,835.245,155.028,834.899,154.468
	C836.21,154.287,834.899,154.468,834.899,154.468z"/>
<path opacity="0.5" fill-rule="evenodd" clip-rule="evenodd" fill="#939090" d="M286.628,105.083
	c-0.77,0.915-1.544,0.979-2.324,0.193c-0.268-0.015,1.591-2.072,1.743-2.325c1.492,1.282-4.082-1.092-3.109-1.251
	c-0.881,0.755-0.749,0.915,0.398,0.478c-1.335,0.93-2.061,0.647-3.377,0.031c-1.035-0.484,1.367-1.476,1.44-1.775
	c-0.453,0.233-3.702,0.949-4.067,0.775c2.47-2.179,5.351-4.527,6.391-6.198c-4.202-1.21-6.883,4.16-8.939,6.803
	c-1.114,1.432-2.521,3.103-4.424,3.461c0.574,1.55-3.488-2.55,0.968,0.581c-1.9,0.215-2.998,1.248-3.292,3.1
	c3.125-0.799,6.465,0.883,9.49-0.581c-3.204,1.166,2.485,0.528,2.517,0.581c-1.367,0.552-2.594,1.327-3.679,2.325
	c2.555,0.08,4.32-1.942,6.198-3.293c0.775,1.636-1.16,2.092-1.356,3.486c1.776-1.125,2.228-0.866,1.356,0.775
	c2.057-0.643,6.162-4.189,2.323-3.1c0.893-3.448,0.437-3.073-1.355-0.193C283.565,107.679,286.488,105.167,286.628,105.083
	C285.638,106,286.628,105.083,286.628,105.083z"/>
<path opacity="0.5" fill-rule="evenodd" clip-rule="evenodd" fill="#939090" d="M292.825,46.208
	c-0.072-3.684-4.884,1.474-2.905-2.324c-2.547,0.562-3.035-1.31-2.711-2.129c-2.632,0.086-4.236,0.396-3.679-1.356
	c-1.265,0.207-2.363-0.116-3.292-0.968c3.497-1.241-1.354-1.136,5.035-0.968c-0.107-1.991-2.455-0.324-3.292-1.356
	c6.29-1.681,2.762-1.162,0.194-1.354c0.63-0.243,0.701-0.467,0.212-0.67c0.331-0.626,0.971-0.791,1.918-0.493
	c-2.417-3.011-4.195,0.936-4.067-1.937c-1.316,0.466-2.673,0.66-4.067,0.581c7.894-2.093,0.301-2.574-0.968-0.968
	c-1.42-0.945,1.108-1.938-0.916-1.782c1.661-0.129-3.548-2.406-3.732-2.672c5.37,0.988-5.613-7.082-7.359-1.356
	c1.208,0.075,4.264,1.2,6.971,1.356c-2.632-0.063-7.561,0.973-9.49,2.132c-0.072-1.712,3.063-2.693,2.325-4.842
	c-3.241-0.004-6.856,0.181-9.868,1.483c-1.13,0.375-1.908,1.105-2.333,2.196c0.887,2.535,4.6-3.027-2.324,1.356
	c0.58,0.498,1.226,0.884,1.937,1.161c-0.5,1.854-2.711-0.25-2.711-1.161c1.994-2.772,5.273-3.672,8.134-5.229
	c-6.607-0.574-13.584,1.679-17.624,7.166c0.695,0.041,4.806-0.438,4.648,0.968c-1.496,0.119-2.967,0.369-4.414,0.748
	c0.919-0.435,23.459,7.131,20.488,0.801c1.817,0.54,3.064-0.09,2.518,2.132c1.479-0.375,2.641,0.142,3.486,1.549
	c-1.433,0.996-2.612-0.178-3.68,1.549c2.918,0.1,4.712-1.314,6.499,1.432c1.172,1.803,0.248,3.237-1.457,4.219
	c-1.26,0.648-2.565,1.184-3.918,1.608c-2.009,0.144-2.32,1.017-0.93,2.618c-2.671-0.205-13.04-1.423-12.782,3.292
	c3.988,1.99,9.001-0.96,10.833-0.927c-0.979-0.018,2.951,4.459,2.917,3.833c-3.297,0.048-1.053,1.682,0.388,1.937
	c-1.202,0.334-1.205,0.668-0.01,1.003c1.269,0.216,1.336-0.118,0.204-1.003c0.782,0.417,10.663,3.967,10.235,2.312
	c-0.535-2.074-3.383-2.964-4.039-5.022c2.25-0.239,3.934,2.006,5.604,3.062c2.911,1.839,2.226-1.39,3.692-2.869
	c-0.665,2.133,0.907-1.841,1.162-2.712c-0.945-0.304-3.462-3.981-4.455-3.291c0.542-0.393,1.232-2.174,1.937-2.712
	c2.492,2.102,4.79,0.128,4.842,4.261c1.345-0.641,8.898-2.414,7.36-3.68C290.832,47.427,292.627,46.25,292.825,46.208
	C292.771,43.378,292.825,46.208,292.825,46.208z"/>
<path opacity="0.5" fill="#939090" d="M205.481,144.978c0.162,0.39,0.354,0.373,0.576,0.093
	C205.866,144.908,205.673,144.854,205.481,144.978z"/>
<path opacity="0.5" fill="#939090" d="M270.734,275.917C269.809,276.06,270.392,276.395,270.734,275.917L270.734,275.917z"/>
<path opacity="0.5" fill="#939090" d="M272.77,283.16c-0.601,0.088-1.39,0.34-2.091,0.439
	C271.412,283.545,272.116,283.402,272.77,283.16z"/>
<path opacity="0.5" fill="#939090" d="M250.211,117.019c0.547,0.017,1.363-0.078,2.525-0.315
	C252.117,116.695,251.206,116.799,250.211,117.019z"/>
<path opacity="0.5" fill="#939090" d="M239.646,46.664c-0.004-0.24-0.025-0.51-0.08-0.844
	C239.509,46.199,239.557,46.457,239.646,46.664z"/>
<path opacity="0.5" fill="#939090" d="M59.65,45.434c-0.933,0.33-1.674,0.458-2.259,0.421C57.08,46.91,57.821,46.783,59.65,45.434z"
	/>
<path opacity="0.5" fill="#939090" d="M57.713,45.046c-0.597,0.181-0.985,0.35-1.232,0.509c0.231,0.176,0.534,0.276,0.91,0.3
	C57.457,45.632,57.553,45.376,57.713,45.046z"/>
<path opacity="0.5" fill="#939090" d="M247.003,461.436c0.5,0,0.997,0.031,1.49,0.094
	C247.947,461.367,247.445,461.324,247.003,461.436z"/>
<path opacity="0.5" fill="#939090" d="M240.237,466.971c-0.022-0.037-0.046-0.072-0.09-0.117
	C240.093,466.879,240.146,466.92,240.237,466.971z"/>
<path opacity="0.5" fill="#939090" d="M226.979,451.166c-0.111-0.066-0.197-0.088-0.282-0.109
	C226.94,451.215,227.075,451.281,226.979,451.166z"/>
<path opacity="0.5" fill="#939090" d="M247.594,428.494c-0.361-0.174-0.836-0.303-1.442-0.375
	C246.625,428.295,247.109,428.395,247.594,428.494z"/>
<path opacity="0.5" fill="#939090" d="M162.968,241.236c-0.105-0.085-0.204-0.159-0.288-0.198
	C162.792,241.101,162.885,241.169,162.968,241.236z"/>
<path opacity="0.5" fill="#939090" d="M163.198,241.438c-0.074-0.068-0.146-0.136-0.229-0.202
	C163.042,241.298,163.117,241.363,163.198,241.438z"/>
<path opacity="0.5" fill="#939090" d="M204.08,153.051c0.125,0.023,0.261,0.044,0.433,0.062
	C204.441,153.032,204.281,153.023,204.08,153.051z"/>
<path opacity="0.5" fill="#939090" d="M230.464,127.936c-0.198,0.052-0.45,0.116-0.682,0.174c-0.04,0.387-0.095,0.759-0.093,1.182
	C229.948,128.84,230.206,128.388,230.464,127.936z"/>
<path opacity="0.5" fill="#939090" d="M234.249,459.686c-0.962-1.414-0.755-0.896-0.304,0.066
	C234.17,459.795,234.322,459.793,234.249,459.686z"/>
<path opacity="0.5" fill="#939090" d="M232.705,459.398c0.457,0.203,0.91,0.416,1.365,0.623c-0.043-0.094-0.085-0.182-0.125-0.27
	C233.499,459.674,232.743,459.416,232.705,459.398z"/>
<path opacity="0.5" fill="#939090" d="M281.924,84.642c0.267,0.064,0.496,0.107,0.638,0.106
	C283.136,83.923,282.635,84.109,281.924,84.642z"/>
<path opacity="0.5" fill="#939090" d="M233.932,238.945c0.715,0.001,1.3-0.005,1.568-0.038
	C234.872,238.873,234.372,238.895,233.932,238.945z"/>
<path opacity="0.5" fill="#939090" d="M164.816,59.088C164.6,59.142,164.56,59.153,164.816,59.088L164.816,59.088z"/>
<path opacity="0.5" fill="#939090" d="M165.63,58.884c-0.403,0.1-0.661,0.165-0.814,0.204
	C164.996,59.043,165.296,58.967,165.63,58.884z"/>
<path opacity="0.5" fill="#939090" d="M157.723,45.094c0.039-0.016,0.078-0.031,0.116-0.047c-0.074,0.03-0.11,0.045-0.169,0.069
	C157.69,45.107,157.705,45.101,157.723,45.094z"/>
<path opacity="0.5" fill="#939090" d="M319.495,298.137c-1.142-3.734-9.11-5.93-12.214-8.311c-3.329-2.555-6.775-2.393-10.707-3.088
	c-3.02-0.535-6.306-0.5-6.267-1.158c-1.832-0.301-0.658,1.92-1.937,2.322c-1.993-4.447-0.52-4.27-4.348-6.84
	c-5.708-3.833-6.781,0.744-10.953,4.133c1.111-1.916,0.641-2.18-0.301-2.035c-0.654,0.242-1.357,0.385-2.091,0.439
	c-0.178,0.025-0.352,0.045-0.513,0.045c0.161,0,0.335-0.02,0.513-0.045c0.701-0.1,1.49-0.352,2.091-0.439
	c2.125-0.795,3.692-2.553,3.788-5.133c-3.301-1.18-6.257-0.874-8.715,1.744c0.389-2.853-1.001,0.372-1.55-0.386
	c1.329-1.264,2.556-2.622,3.681-4.07c0.155,1.577-1.899,1.415-1.744,2.712c0.952,0.079,4.409-0.864,4.455-2.13
	c-0.975-0.067-1.578-0.037-1.95,0.02c-0.342,0.479-0.926,0.144,0,0c0.112-0.159,0.198-0.403,0.192-0.775
	c0.023,1.361-0.026-9.102-1.147-5.054c-1.685-2.383-2.672-7.187-3.656-9.542c-1.487-3.554-6.634-3.932-9.882-4.204
	c-3.767-0.313-7.917-0.35-10.208-3.945c-1.538-2.417-7.023-5.369-7.455-7.667c-0.098,0.45-0.342,0.822-0.732,1.112
	c-0.511,0.404,0.763-2.871-0.88-3.342c-1.07-0.101-2.14-0.199-3.209-0.301c-1.915-1.956-1.833-3.03,0.175-3.254
	c-2.752-0.005-7.527-0.105-4.436,0.932c-3.698,0.934-6.899-1.021-10.546-0.381c-2.217,0.392-9.179-5.241-9.171-4.981
	c0.113,3.819-1.837,1-4.684,4.393c-1.393-5.528,0.193-1.154,1.937-4.842c-0.633-2.651-9.696,3.702-10.652,4.842
	c-3.104-3.162-5.913,7.506-8.134,9.295c-2.422-2.156-5.025-6.457-8.977-4.793c-2.842,1.197-5.657,2.917-7.429,1.409
	c-4.391-3.735-6.163-16.861-1.218-21.017c-2.142-1.588-7.217-3.736-9.369-3.004c-1.386,0.471-7.007,1.17-8.061-0.289
	c1.819-1.109,2.26-3.567,2.561-5.463c0.362-2.28,0.177-6.027,1.506-2.477c1.821-1.626,5.68-11.632,2.503-11.909
	c-10.203-0.887-6.788,9.136-13.451,10.709c0.504-0.119-4.971,0.101-6.608,0.584c-3.743,1.104-2.249-0.5-5.321-1.298
	c-2.694-0.7-2.939-4.073-3.241-6.294c-0.101-1.253-0.38-2.465-0.835-3.635c-1.05-1.694-1.296-1.49-0.741,0.61
	c-3.42-7.154,4.232-13.164,4.066-20.142c0.122,1,0.154,2.003,0.095,3.009c0.542-0.843,0.751-3.668-0.675-3.977
	c2.537,0.436,2.218-4.477,2.711-1.937c2.011-3.849,4.585-1.822,7.553-5.229c-1.547,0.965,0.204-1.313,0.968-1.356
	c-0.013,2.833,4.295-0.019,6.868,0.162c1.659,0.117,6.171,3.291,7.076,0.613c0.411,1.502,1.314,1.954,2.711,1.356
	c-3.671-3.993-0.387-0.456-0.387-3.293c-0.977,0.138-1.881-0.055-2.712-0.581c0.87-1.674,5.955-0.269,7.554-1.549
	c0.84,2.652,0.337,0.522,2.905,0.773c-2.879-0.17,6.168-0.416,3.873,2.517c6.332-3.536,6.279,2.913,6.584,7.361
	c0.087-0.521,2.809,8.119,2.905,8.133c1.002,2.057,1.523-0.436,1.937,1.356c7.264-6.804-3.755-19.237,4.291-25.54
	c1.371-1.074,13.625-9.608,16.192-9.962c-2.257-0.407,2.626-1.746,3.144-3.231c-0.689,0.101-1.334-0.027-1.937-0.388
	c2.438-1.909,0.904,0.509,2.518,0.583c0.023-0.532-0.817-4.148-1.749-4.944c-0.222,0.28-0.414,0.297-0.576-0.093
	c0.192-0.124,0.385-0.07,0.576,0.093c0.985-1.243,2.561-7.777,4.653-8.032c-1.82,2.506-2.528,5.373-2.905,8.327
	c1.646-1.627,2.647-4.746,2.905-2.517c1.779-2.068,0.76-3.065,1.163-5.422c2.004,0.563,2.53,1.972,4.902-1.93
	c2.155-3.546,3.561-1.775,7.687-4.075c-1.931,0.304-3.868,0.562-5.81,0.775c2.47-1.994,8.122-3.323,11.131-4.087
	c0.97-9.508,14.378-8.51,21.405-13.15c-1.914,1.345-2.214,2.021-0.976,2.06c0.995-0.22,1.906-0.324,2.525-0.315
	c-1.162,0.237-1.978,0.333-2.525,0.315c-3.023,0.669-6.822,2.414-5.593,5.355c0.253,0.606,16.924-5.041,15.09-6.059
	c4.128,1.802,4.992-3.764,4.455-5.617c-4.482,2.298-5.635,6.923-11.233,3.487c-2.796-0.267-0.64-4.476,0.968-6.585
	c-1.701,0.701-3.315,0.507-4.841-0.581c2.254,0.461,7.529,0.296,6.972-3.293c-8.167-2.247-14.403,4.139-21.304,7.167
	c6.597-4.254,12.851-9.798,20.858-11.093c4.492-0.726,8.937,0.36,13.407-0.754c5.448-1.359,10.167-4.443,15.121-6.939
	c-1.634-0.4,3.095-5.69-2.905-3.681c-0.146-0.639,0.008-1.107,0.46-1.404c-3.33,1.047-1.129-1.341,0.258-2.381
	c-1.532-0.364-4.792-1.644-6.141-2.218c1.817-1.419-1.129-3.333-2.325-3.874c1.335-0.135,2.239-0.844,2.711-2.129
	c-3.143-0.655,1.108-4.341-2.324-4.456c0.793-0.076,0.133-4.623,0.047-5.885c-0.038-0.566-7.577,5.07-8.215,5.475
	c-3.941,2.51-5.203-2.28-7.133-0.752c0.696-2.106,3.129-4.961,4.067-7.359c-4.795,0.913-4.014-3.815-8.461-4.146
	c-5.46-0.406-10.894-0.772-13.378,5.156c0.261,0.605,0.364,1.244,0.308,1.916c0.089,1.556-3.062,2.692-4.234,3.495
	c-3.101,2.553,2.25,5.299-1.164,9.072c-2.755,3.045-6.808,3.476-9.854,5.935c-1.893,1.528-2.69,3.854-3.51,6.042
	c-1.01,2.697-0.981,6.004-2.7,3.905c0.484-0.096-3.314,0.843-3.874,1.161c1.36-1.691-1.706-2.897-0.726-5.438
	c0.953-2.474,1.778-5.306,3.244-7.538c-3.695-0.562-6.555-1.535-9.991-2.404c-4.726-1.195-6.628-5.222-12.087-3.987
	c1.588-1.447,1.315-3.812,2.13-5.617c-7.777-0.254,0.446-1.449-2.13-4.454c3.523,0.418,8.937-4.615,11.58-6.492
	c2.215-1.572,12.553-4.005,4.301-4.547c2.196,0.146,17.166-0.983,16.461-5.422c3.941-1.269,3.203-3.271,6.283-3.766
	c1.846-0.297,1.999,3.827,4.369,2.797c-0.06-0.271-1.941-2.14-1.355-2.324c1.243,1.126,1.844,1.073,1.822-0.125
	c-0.09-0.207-0.137-0.464-0.08-0.844c0.055,0.334,0.076,0.604,0.08,0.844c1.021,2.342,10.61-5.505,8.072-4.588
	c0.669-0.841,0.534-1.141-0.405-0.902c1.975-0.282,3.084-1.819,3.354-2.156c-0.314,0.505-0.226,0.847,0.263,1.026
	c2.685-1.854-0.515-1.431-0.13-3.131c-1.307-0.126-10.015-1.6-6.971,1.937c-4.537-0.279-6.82,3.952-10.652,5.422
	c0.006-0.008,2.938-5.409,3.134-4.704c-0.376-1.358-6.163,1.183-7.007,1.218c-0.346-3.216,1.469-2.031,2.711-3.486
	c-1.53,0.339-2.951,0.081-4.261-0.775c0.551-0.05,3.63-1.652,3.68-1.742c0.679-0.435-3.396-4.125,0.495-6.058
	c4.079-2.026,8.668-2.544,12.869-4.208c-11.448-0.655-16.942,4.221-24.79,11.815c3.937,0.914,3.98,0.553,0.582,3.292
	c5.546-0.727-0.182,1.186-1.403,1.567c-1.995,0.622-4.237,1.259-4.947,3.532c0.007-1.292-0.459-1.442-1.396-0.452
	c2.724-4.472,3.898-0.656,0.774-3.874c2.057,0.216,3.993-0.171,5.81-1.161c-2.699-0.885-8.051-4.893-9.49,0
	c0.983,0.991,1.84-0.315,3.098,0.968c-0.486,0.729-3.53-0.256-2.963,1.307c0.543,0.405,1.144,0.679,1.802,0.823
	c-1.178,2.85-13.395-0.012-15.221-1.227c-3.4-2.26-5.33-2.053-9.569,0.453c2.382,0.796-2.371,4.033-3.292,4.066
	c0.291-0.465,1.439-1.257,1.549-1.549c-3.417-2.039-9.934-0.731-14.719-1.744c1.507-0.693,3.056-1.274,4.648-1.742
	c-2.604-3.131-7.789-1.557-11.232-1.937c0.543-4.173-7.402-0.918-9.295-1.163c1.35-0.244,2.254-1.02,2.711-2.324
	c-2.829,0.838-2.298,1.094-5.81,2.519c-1.189-0.706,0.45-2.459-0.272-3.285c-0.647-0.741-4.403,2.303-5.731,2.122
	c1.214-0.173,0.441-0.479,0.388-1.356c-4.352,0.638-8.519,2.579-12.976,2.519c1.661-0.636,1.542-0.806-0.354-0.507
	c-1.81,0.094-4.977,0.167-6.036,2.056c0.599-0.15,0.857,0.043,0.774,0.581c-6.378-0.585-12.052-4.389-18.489-4.583
	c-2.157-0.065-10.264,0.853-11.469-1.477c-1.323-2.557-13.945-0.815-16.947-0.104c-8.981,2.131-17.617,5.545-26.689,7.326
	c1.498,0.146,2.208,0.957,2.132,2.433c-0.165,1.065,0.016,1.768,0.51,2.144c0.247-0.159,0.635-0.328,1.232-0.509
	c-0.161,0.33-0.256,0.585-0.322,0.809c0.584,0.037,1.326-0.091,2.259-0.421c-1.829,1.349-2.57,1.476-2.259,0.421
	c-0.375-0.023-0.678-0.124-0.91-0.3c-1.035,0.664,0.557,1.127,1.1,1.362c0.062,0.014,0.109,0.036,0.132,0.066
	c-0.023-0.03-0.07-0.052-0.132-0.066c-0.907-0.204-5.625,1.174-6.84,0.259c0.764-0.29,1.54-0.547,2.324-0.774
	c-4.705-2.213-9.983,2.575-14.719,2.518c0.821,0.934,1.854,1.386,3.099,1.356c-3.657,0.768-0.239,0.707-3.292,1.937
	c4.656,1.445,9.02,0.584,13.557-0.775c-2.363,4.302-9.453,4.625-13.56,5.707c-2.456,0.647-16.056,4.532-11.037,5.525
	c-0.652,1.035-1.588,1.604-2.808,1.711c-2.455,1.041,0.329,1.98-0.872,3.518c3.05-0.35,5.298-2.691,8.328-3.098
	c-0.514,0.55-3.053,0.832-3.103,1.651c0.064-0.048-2.327,4.742-5.226,5.127c1.619,0.897,4.493-0.772,6.004-1.356
	c-0.721,0.733,2.248-0.167,0.968,2.13c1.101-0.884,2.327-1.529,3.679-1.937c-1.735,3.375,2.532-0.023,3.68,0
	c-4.153,2.03-7.175,5.083-11.779,6.251c-2.368,0.6-8.149,4.162-9.662,3.866C12.67,79.817,2.29,82.35,0,85.522
	c8.462-0.595,19.125-4.375,26.973-7.26c5.26-1.934,10.632-3.595,15.869-5.555c0.427-0.161,4.038-1.329,2.67-2.679
	c4.074-2.167,8.407-3.791,12.782-5.228c-1.94,0.821-4.376,2.437-2.905,3.291c-1.389,0.272-2.68,0.79-3.874,1.551
	c7.135-0.042,13.125-6.276,20.335-5.424c-0.208,0.569-0.208,1.15,0,1.744c1.463-0.652,12.791,0.396,14.139,1.744
	c-2.842,0.02-0.989,3.134,0.059,4.12c1.312,1.238,5.707-3.853,3.039,0.527c2.969,0.294,2.186-3.159,4.649-3.293
	c-3.587,2.929,1.31,4.813-2.712,6.198c3.067,1.606-0.039-0.334,0,1.163c4.052-0.14-0.506,4.55-0.968,5.228
	c0.955-0.791,2.053-1.177,3.293-1.161c0.026-0.108-5.429,6.305-0.774,3.485c-1.065,2.22-3.21,0.487-0.968,2.325
	c-1.631,0.25-2.018,1.089-1.163,2.517c0.856-0.871,1.889-1.387,3.099-1.549c-2.153,0.198-2.939,3.978-3.874,5.422
	c1.704,0.153,2.614-0.641,3.874,0c-3.17-0.011-7.198,6.037-3.342,4.632c1.225-0.446,1.928,0.35,0.243,1.373
	c1.691-0.07,3.304-0.458,4.842-1.163c-0.63,0.636-3.81,6.351,0.202,3.177c0.152-0.164,0.33-0.322,0.573-0.465
	c-0.243,0.144-0.421,0.302-0.573,0.465c-1.762,1.897,2.036,5.039-1.944,8.25c2.449-2.372-3.087-2.623-4.455-2.905
	c-0.222,0.58-1.849,6.199-2.323,6.003c-1.7,4.984-6.154,8.794-9.001,13.105c-1.972,2.988-4.234,6.073-5.163,9.597
	c-0.958,3.631,1.26,5.408,1.451,8.755c0.054,1.835-0.55,3.421-1.812,4.759c0.584,1.866,2.565,4.268,0.774,6.197
	c4.99,1.314,6.785,4.119,7.294,9.016c0.539,5.186,7.512,15.458,0.647,14.805c-0.044,0.447,11.118,10.85,5.926,11.374
	c1.517-0.153,5.164,3.894,5.306,6.25c5.624-0.589-3.118-7.471,0-7.359c-0.147-0.009-5.115-13.694-6.343-17.191
	c-1.332-3.796,0.93-9.131,4.987-4.693c-0.444,0.802-1.311,8.125-0.775,8.522c3.2-2.144,5.878,10.908,7.911,11.836
	c2.941,1.344,6.72,10.828,7.971,13.921c-0.308,3.152-3.882,4.155-0.571,7.138c3.059,2.755,4.765,3.861,8.397,5.719
	c3.974,2.032,7.49,4.947,11.694,6.533c1.648,0.623,11.137,0.552,8.949-1.187c7.029-1.599,13.693,17.757,22.078,10.652
	c0.294,1.997,1.043,3.722,3.455,7.205c0.621,0.897,1.826,6.886,3.021,6.362c0.724-0.624,0.857-1.2,0.442-1.731
	c-0.071-0.076-0.137-0.137-0.204-0.201c-0.081-0.075-0.156-0.14-0.229-0.202c-0.083-0.066-0.176-0.135-0.288-0.198
	c0.084,0.039,0.183,0.113,0.288,0.198c0.083,0.066,0.156,0.134,0.229,0.202c0.066,0.064,0.132,0.125,0.204,0.201
	c1.796,1.883,5.012,7.13,4.703,4.626c1.687,3.96,5.724,1.229,7.359,5.23c6.633-0.52,0.155-2.237,2.724-4.558
	c1.259-1.135,5.194-2.266,5.797,0.492c-0.666,0.42,2.793,11.453,2.681,13.765c-0.241,4.933-4.487,8.438-7.839,11.586
	c-2.22,2.084-1.292,4.19-3.042,6.772c-2.568,3.787,0.35,4.886,1.036,8.349c0.604-0.576,1.12-1.221,1.549-1.936
	c0.019,3.377-5.457,4.357-4.525,7.814c0.978,3.629,0.079,4.293,2.818,6.406c6.671,5.145,8.499,15.254,12.248,22.408
	c4.503,8.592,10.932,10.426,18.23,15.887c5.823,4.355,6.354,11.35,6.571,18.123c0.312,9.656-1.343,21.625,1.427,30.924
	c0.842,2.822,3.38,19.1,0.783,21.436c-0.21,0.189,1.729,14.373,4.474,16.25c-2.455,0.527-1.368,5.697,1.743,5.422
	c-0.665-1.416-2.121-6.242-0.194-6.584c0.919,0.779,1.695,1.684,2.325,2.711c-0.852-0.83,3.206,12.27-0.388,11.039
	c0.281,1.209,2.497,0.381,2.324,2.904c-2.234-0.631-1.682-2.941-3.487-3.873c-0.196,0.4-0.22,1.496-0.193,1.938
	c0.456,0.213,0.728,0.09,0.814-0.367c0.817,1.379,0.286,1.76-1.59,1.143c0.233,0.58-0.615,3.637,0.775,3.678
	c-0.355-2.768,3.626-0.652,3.682,0.699c0.112,2.689,1.243,3.5,1.547,5.691c-0.987-0.996-1.697-2.158-2.13-3.486
	c-0.529,0.566-1.174,0.826-1.937,0.775c1.166,0.928,2.135,2.027,2.905,3.293c-3.872-2.145-0.913,0.193,0.106,0.859
	c0.085,0.021,0.17,0.043,0.282,0.109c0.097,0.115-0.039,0.049-0.282-0.109c-0.79-0.193-0.461,1.436-0.493,1.658
	c1.71-0.574,2.614-0.123,2.711,1.357c-2.802-2.121-0.871,2.289,0,2.322c-0.44-1.311-0.118-2.408,0.969-3.291
	c0.286,1.99-1.216,0.178,1.162,2.129c-0.478-0.025-2.235,1.592-0.844,1.975c2.635,0.721,3.27,1.234,5.685,3.643
	c-0.602-0.283-1.211-0.555-1.817-0.828c0.476,1.006,1.105,2.314,1.043,2.57c0.883,0.723,1.27,0.527,1.162-0.58
	c-0.426,1.455,2.839,1.338,2.905,2.129c-1.458,1.037-4.3-0.451-5.422-1.354c1.123,2.092,3.927,1.152,5.422,2.709
	c-2.006,1.029,1.521,2.195,1.058,1.475c-0.092-0.051-0.145-0.092-0.09-0.117c0.043,0.045,0.067,0.08,0.09,0.117
	c0.491,0.256,2.651,0.807,2.234,1.625c0.129-0.047,2.357-1.816,2.905-0.387c-0.284,0.703-0.736,0.832-1.356,0.387
	c-0.27,1.627,4.197,1.543,5.036,1.549c-7.161,1.197,1.77,1.041-0.194,0.193c2.5-0.678,3.516,3.859,3.681,0.969
	c1.268,0.781,2.623,1.361,4.066,1.744c-0.568-1.031-1.407-1.74-2.518-2.133c0.847,0.125,2.744,0.949,3.874,0.777
	c0.653-2.789,4.307,0.537,4.454-2.326c-4.244-0.18-10.179-6.754-13.926-7.84c-0.494-0.062-0.99-0.094-1.49-0.094
	c0.441-0.111,0.944-0.068,1.49,0.094c0.515,0.062,1.024,0.158,1.531,0.289c-1.371-1.904-6.161-4.922-4.05-7.533
	c1.564-1.938,6.023-7.186,3.802-9.604c-1.744-1.9-8.688-2.68-6.365-6.744c1.814-3.178,4.642,0.799,4.087-3.961
	c-0.063-0.74-0.128-1.477-0.191-2.217c1.357-1.617,1.446-2.705,0.286-3.266c-0.484-0.1-0.969-0.199-1.442-0.375
	c0.606,0.072,1.081,0.201,1.442,0.375c0.797,0.162,1.604,0.256,2.431,0.205c0.085-2.588-9.038-2.574-5.81-7.359
	c2.114,2.43,7.769-0.322,7.001-0.803c-0.689-0.438-1.927-5.156-1.772-5.975c4.78,2.133,11.72,0.445,13.986-4.588
	c2.928-6.506-8.174-7.521-6.821-12.648c2.271,4.549,11.829,3.979,14.54,0.076c4.312-6.201,10.389-15.773,11.412-23.316
	c-2.137,0.742-0.091-4.824-1.744-6.779c3.772,0.979,4.958-7.285,9.877-5.227c0.037-0.918,2.188-4.785,4.261-3.488
	c6.864-0.91,5.859-4.338,9.978-8.654c7.21-7.555-2.568-20.182,3.191-27.945c1.954,2.561,5.753-5.213,7.059-7.607
	C317.593,309.971,321.09,303.352,319.495,298.137z M240.808,64.411c0.024-0.033,0.051-0.068,0.059-0.078
	C240.858,64.343,240.832,64.378,240.808,64.411z M192.506,129.292c0.074-0.048,0.105-0.069,0.168-0.11
	c0.204-0.133,0.379-0.249,0.496-0.325c0.478-0.313,0.299-0.196,0,0c-0.116,0.077-0.292,0.192-0.496,0.325
	C192.58,129.244,192.506,129.292,192.506,129.292c4.708-3.087,9.558-2.013,13.944-4.261
	C203.115,127.906,197.019,131.695,192.506,129.292z M198.316,113.411c2.339,0.162,5.061-0.025,7.173,1.191
	c2.89,1.665,0.013,7.873-2.138,2.102c-0.902-0.152-4.925,7.083-6.189,7.933c0.019,0.062,0.022,0.082-0.008,0.007
	c0.002-0.002,0.006-0.005,0.008-0.007c-0.108-0.355-0.881-2.646-0.466-2.847c-0.83,0.397-1.711,0.638-2.64,0.724
	c0.676-2.292,3.726-2.737,3.679-5.422c-1.62-3.013-5.711-1.648-6.584,1.161c-2.443-2.671-5.776,10.373-10.458,11.427
	c-0.142-5.33,3.578-9.184,6.972-12.783c-7.616,3.462,1.645-1.697,4.959-1.858c1.131-0.055,10.609,1.047,10.921-0.271
	C203.229,113.265,196.909,115.923,198.316,113.411z M187.665,105.664c-0.035,0.012-0.048,0.017-0.08,0.028
	c-0.063,0.022-0.153,0.054-0.244,0.087c-0.246,0.087-0.455,0.161,0,0c0.091-0.033,0.181-0.064,0.244-0.087
	C187.616,105.681,187.629,105.676,187.665,105.664c0.248-0.088,3.486-2.428,0.968,0.193c3.049-1.097,2.281-3.556,6.177-0.061
	c0.577,0.518,5.985,5.927,1.57,6.453c0.52,0.131,1.024,0.31,1.511,0.536c0.028,0.042-10.06-3.538-11.582-1.312
	c0.669-1.117,1.638-1.827,2.905-2.13c-1.721-0.065-11.635,4.477-8.715,1.549c-1.487,0.315-2.971,0.638-4.454,0.968
	C179.348,108.764,184.322,108.701,187.665,105.664z M169.653,90.558C169.653,90.558,170.169,90.429,169.653,90.558
	c0.516-0.129,1.034-0.258,1.55-0.388c-3.125-0.913,0.425-3.026,2.027-2.856c3.2,0.337-1.818,7.093-2.027,8.086
	c0.342-0.744,0.407-1.52,0.193-2.324C169.594,94.659,169.013,93.819,169.653,90.558z M167.522,58.408
	c-7.327,1.84-15.443,8.12-23.24,4.649c3.264,0.311,6.043-1.41,9.103-2.129c0.06,0.068-0.071-1.689-0.422-2.316
	c-0.118-0.07-0.233-0.125-0.353-0.204c0.137-0.078,0.252,0.025,0.353,0.204C158.036,61.647,162.18,57.927,167.522,58.408z
	 M157.839,45.046c0,0-0.051,0.022-0.116,0.047c-0.021,0.008-0.042,0.017-0.063,0.026c-0.018,0.008-0.036,0.015-0.054,0.023
	c-0.091,0.037-0.187,0.076-0.263,0.107c-0.09,0.037-0.124,0.051-0.118,0.048c-0.005,0.003,0.028-0.011,0.118-0.048
	c0.077-0.032,0.172-0.071,0.263-0.107c0.018-0.008,0.036-0.015,0.054-0.023c-1.359,0.558-2.719,1.115-4.081,1.668
	c1.634,1.742,4.785-0.354,6.592-0.409c-0.882,0.025-2.47,2.367-2.719,2.345c-2.592-0.13-5.575-0.187-6.778,2.712
	c0.77-1.52,0.378-1.952-1.147-1.32c-0.492,0.269-1.186,0.633-2.146,1.127c0.876-0.527,1.582-0.894,2.146-1.127
	c3.761-2.062-4.937,1.731-6.793,0.544c1.391-1.169,7.204-1.245,7.747-2.905c-2.526-1.781-5.68,0.176-8.328,0.195
	C146.837,45.022,152.727,46.394,157.839,45.046z"/>
<path opacity="0.5" fill="#939090" d="M167.522,58.408c-0.188,0.047-0.328,0.083-0.494,0.124
	C167.319,58.459,167.522,58.408,167.522,58.408z"/>
<path opacity="0.5" fill="#939090" d="M192.506,129.292c0,0,0.074-0.048,0.168-0.11C192.611,129.223,192.58,129.244,192.506,129.292
	z"/>
<path opacity="0.5" fill="#939090" d="M192.506,129.292c0,0,0.074-0.048,0.168-0.11C192.611,129.223,192.58,129.244,192.506,129.292
	z"/>
<path opacity="0.5" fill="#939090" d="M193.17,128.856C193.469,128.66,193.647,128.543,193.17,128.856L193.17,128.856z"/>
<path opacity="0.5" fill="#939090" d="M193.17,128.856C193.469,128.66,193.647,128.543,193.17,128.856L193.17,128.856z"/>
<path opacity="0.5" fill="#939090" d="M197.162,124.636c-0.002,0.002-0.006,0.005-0.008,0.007
	C197.184,124.718,197.181,124.698,197.162,124.636z"/>
<path opacity="0.5" fill="#939090" d="M197.162,124.636c-0.002,0.002-0.006,0.005-0.008,0.007
	C197.184,124.718,197.181,124.698,197.162,124.636z"/>
<path opacity="0.5" fill="#939090" d="M187.341,105.779C186.886,105.94,187.095,105.866,187.341,105.779L187.341,105.779z"/>
<path opacity="0.5" fill="#939090" d="M187.341,105.779C186.886,105.94,187.095,105.866,187.341,105.779L187.341,105.779z"/>
<path opacity="0.5" fill="#939090" d="M169.653,90.558C170.169,90.429,169.653,90.558,169.653,90.558L169.653,90.558z"/>
<path opacity="0.5" fill="#939090" d="M169.653,90.558C170.169,90.429,169.653,90.558,169.653,90.558L169.653,90.558z"/>
<path opacity="0.5" fill="#939090" d="M152.61,58.408c0.119,0.079,0.234,0.133,0.353,0.204
	C152.863,58.433,152.748,58.331,152.61,58.408z"/>
<path opacity="0.5" fill="#939090" d="M152.61,58.408c0.119,0.079,0.234,0.133,0.353,0.204
	C152.863,58.433,152.748,58.331,152.61,58.408z"/>
<path opacity="0.5" fill="#939090" d="M149.527,50.117c-0.564,0.233-1.27,0.6-2.146,1.127
	C148.341,50.75,149.035,50.386,149.527,50.117z"/>
<path opacity="0.5" fill="#939090" d="M149.527,50.117c-0.564,0.233-1.27,0.6-2.146,1.127
	C148.341,50.75,149.035,50.386,149.527,50.117z"/>
<path opacity="0.5" fill="#939090" d="M157.659,45.12c0.022-0.009,0.042-0.018,0.063-0.026c-0.018,0.007-0.032,0.013-0.053,0.022
	C157.666,45.117,157.663,45.118,157.659,45.12z"/>
<path opacity="0.5" fill="#939090" d="M157.659,45.12c0.022-0.009,0.042-0.018,0.063-0.026c-0.018,0.007-0.032,0.013-0.053,0.022
	C157.666,45.117,157.663,45.118,157.659,45.12z"/>
<path opacity="0.5" fill="#939090" d="M157.839,45.046c-0.039,0.016-0.078,0.031-0.116,0.047
	C157.788,45.068,157.839,45.046,157.839,45.046z"/>
<path opacity="0.5" fill="#939090" d="M157.839,45.046c-0.039,0.016-0.078,0.031-0.116,0.047
	C157.788,45.068,157.839,45.046,157.839,45.046z"/>
<path opacity="0.5" fill-rule="evenodd" clip-rule="evenodd" fill="#939090" d="M808.366,89.009
	c7.641,7.676,13.49,16.854,19.562,25.757c-1.091-4.841,1.874-2.875,3.485-0.581c-1.935-4.48-8.18-5.541-8.327-11.04
	c2.219-1.102,3.717,1.253,5.617,1.742c-4.985-3.772-15.671-19.675-21.498-18.784C811.324,87.165,808.998,88.301,808.366,89.009
	c1.104,1.109,2.207,2.218,3.312,3.327C810.573,91.227,809.471,90.119,808.366,89.009C816.003,96.681,808.366,89.009,808.366,89.009z
	"/>
<path opacity="0.5" fill-rule="evenodd" clip-rule="evenodd" fill="#939090" d="M508.765,63.445
	c2.814-4.456,8.953,1.945,6.203,2.761C510.954,67.396,512.615,65.431,508.765,63.445C510.641,60.474,508.765,63.445,508.765,63.445z
	"/>
<path opacity="0.5" fill-rule="evenodd" clip-rule="evenodd" fill="#939090" d="M498.261,144.463
	C498.472,144.615,498.554,144.586,498.261,144.463L498.261,144.463z"/>
<path opacity="0.5" fill-rule="evenodd" clip-rule="evenodd" fill="#939090" d="M758.586,29.915
	c-0.072-0.064-0.191-0.094-0.369-0.076c0.024,0.03,0.05,0.062,0.074,0.093C758.39,29.927,758.479,29.919,758.586,29.915z"/>
<path opacity="0.5" fill-rule="evenodd" clip-rule="evenodd" fill="#939090" d="M487.927,136.34
	c-0.027-0.026-0.048-0.05-0.076-0.077C488.138,137.198,488.121,137.052,487.927,136.34z"/>
<path opacity="0.5" fill-rule="evenodd" clip-rule="evenodd" fill="#939090" d="M462.407,146.569
	c0.068,0.007,0.135-0.001,0.203,0.009C462.54,146.487,462.473,146.504,462.407,146.569z"/>
<path opacity="0.5" fill-rule="evenodd" clip-rule="evenodd" fill="#939090" d="M380.317,192.748
	C380.317,192.748,378.843,194.082,380.317,192.748L380.317,192.748z"/>
<path opacity="0.5" fill-rule="evenodd" clip-rule="evenodd" fill="#939090" d="M534.822,130.747
	c-0.338-0.365-0.637-0.685-0.895-0.962C534.317,130.205,534.668,130.582,534.822,130.747z"/>
<path opacity="0.5" fill-rule="evenodd" clip-rule="evenodd" fill="#939090" d="M716.862,208.618
	c-0.164-0.166-0.309-0.347-0.486-0.503C716.79,208.655,716.906,208.749,716.862,208.618z"/>
<path opacity="0.5" fill-rule="evenodd" clip-rule="evenodd" fill="#939090" d="M580.516,146.967
	c0.089,0.016,0.282,0.051,0.517,0.095C580.745,147.008,580.59,146.98,580.516,146.967
	C580.45,146.955,580.446,146.954,580.516,146.967z"/>
<path opacity="0.5" fill-rule="evenodd" clip-rule="evenodd" fill="#939090" d="M857.423,89.676
	c0.047,0.037,0.087,0.068,0.136,0.107C857.583,89.716,857.521,89.688,857.423,89.676z"/>
<path opacity="0.5" fill-rule="evenodd" clip-rule="evenodd" fill="#939090" d="M376.296,203.466
	c-0.022-0.22-0.008-0.478-0.007-0.72C376.24,202.882,376.232,203.103,376.296,203.466z"/>
<path opacity="0.5" fill="#939090" d="M497.145,138.587c0.147-0.068,0.248-0.148,0.321-0.235c-0.043-0.036-0.079-0.068-0.117-0.102
	C497.312,138.352,497.247,138.464,497.145,138.587z"/>
<path opacity="0.5" fill="#939090" d="M500.314,141.96C499.964,141.246,499.346,141.487,500.314,141.96L500.314,141.96z"/>
<path opacity="0.5" fill="#939090" d="M496.757,137.619c-0.049,0.05,0.196,0.29,0.592,0.631
	C497.449,137.945,497.252,137.735,496.757,137.619z"/>
<path opacity="0.5" fill="#939090" d="M617.606,43.11c-0.123,0-1.324-0.637-2.879-1.394
	C614.706,42.417,615.065,42.983,617.606,43.11z"/>
<path opacity="0.5" fill="#939090" d="M756.464,30.327c0.051,0.013,0.549-0.182,1.058-0.332
	C756.874,30.066,756.454,30.173,756.464,30.327z"/>
<path opacity="0.5" fill="#939090" d="M484.45,398.037c-0.079,0.209,0.002,0.377,0.146,0.527
	C484.664,398.389,484.624,398.213,484.45,398.037z"/>
<path opacity="0.5" fill="#939090" d="M593.678,40.287c0.202,0.128,0.338,0.205,0.35,0.182
	C594.046,40.431,593.895,40.365,593.678,40.287z"/>
<path opacity="0.5" fill="#939090" d="M883.511,53.181c-2.894-2.248-0.969-2.151-4.648-4.068c4.155,1.102,5.014,0.899,2.576-0.605
	c0.463,0.241,0.896,0.769,1.685,0.025c-3.026-3.15-8.03-3.116-12.008-3.874c2.897,2.384-1.71-0.923-3.681,0
	c1.451,0.42,2.679,1.194,3.681,2.324c-15.198-7.904-34.115-12.922-51.321-11.62c1.462,1.928,3.92,2.542,6.003,3.485
	c-4.597,1.725-9.239-2.156-13.863-1.841c-5.275,0.358-11.872,0.939-16.47-2.268c-8.531-5.949-20.488-0.939-29.897-4.025
	c3.479-0.499-3.319-0.964-6.98-0.799c0.075,0.067,0.099,0.172-0.017,0.375c-0.084-0.132-0.188-0.237-0.278-0.358
	c-0.284,0.017-0.541,0.038-0.77,0.062c-0.509,0.15-1.007,0.345-1.058,0.332c-0.01-0.153,0.41-0.26,1.058-0.332
	c0.247-0.072,0.493-0.135,0.695-0.155c-3.2-3.988-11.077-1.307-15.31-2.418c1.27,1.338,1.746,2.712-1.084,1.791
	c2.737,0.892,1.623,0.724,4.184,2.278c-3.801-1.16-4.834-0.903-3.1,0.773c-2.771-0.281-3.094-0.604-0.969-0.968
	c-4.431,0.209-8.796-0.325-13.169-0.968c-0.051,1.247,1.663,2.032,0.581,3.292c-1.948-0.417-8.276-1.545-6.778-2.905
	c-4.066-0.712-4.323,0.423-1.356-1.161c-1.617-1.088-4.227-1.365-2.71-1.937c-3.344-0.687,1.278-0.257-4.802-1.559
	c-2.41-0.5-4.846-0.745-7.307-0.737c-4.144-0.693-4.691,0.008-1.642,2.101c-7.336-1.452-14.5-1.142-21.922-2.405
	c-1.66-0.283-13.499-0.209-7.516,0.275c-2.134,0.663-7.735,2.623-8.91,2.517c2.469-3.103,7.252-3.533,9.493-6.283
	c1.866-2.29-2.562-3.849-3.295-2.82c-2.53-2.416-5.759-2.007-8.868-1.472c-2.058,0.354-6.15,1.816-5.076-1.045
	c-2.06-0.04-6.645,1.003-3.874-1.162c-1.418-0.249-8.873-0.693-9.371,1.116c0.286,0.792,0.893,1.259,1.819,1.401
	c-3.948-0.128-4.157,1.039-7.768,1.071c-1.902,0.016-3.807-0.063-5.708,0.033c-2.959,0.149-1.775-0.126-1.049,0.832
	c-3.953-0.282-7.632,1.167-11.428,1.937c0.236,0.013,2.716,1.786-1.161,0.581c0.191,1.544,2.756,1.805,4.261,2.712
	c-4.437,0.516-8.907,0.562-13.363,0.773c1.123,2.95,5.112,3.66,8.135,5.229c-1.391,0.137-16.021-2.973-10.071-0.388
	c-1.479-0.203-2.964-0.268-4.454-0.193c1.082,2.965,4.789,0.543,6.391,2.712c-2.088-0.389-4.448,0.231-6.421-0.79
	c-1.897-0.98-1.551-5.472-4.618-4.247c4.306,1.002,0.125,2.176-0.723,2.776c-1.522,1.079,3.441,5.851,4.643,6.833
	c2.268,1.855,5.748,0.826,8.389,1.401c3.217,0.703,2.464,1.929,2.438,2.896c1.555,0.757,2.756,1.394,2.879,1.394
	c-2.541-0.127-2.9-0.692-2.879-1.394c-3.951-1.924-10.261-4.656-7.556,0.096c3.263,5.733-6.57,5.652-9.899,3.815
	c12.573,0,4.101-6.82,1.086-12.512c-1.67-3.156-1.49-5.333-5.254-5.547c-4.392-0.251-7.008,1.536-7.648,6.051
	c-0.8-0.086,6.55,5.595,8.222,6.668c0.217,0.078,0.368,0.144,0.35,0.182c-0.012,0.023-0.147-0.053-0.35-0.182
	c-2.421-0.865-18.168-3.947-20.81-3.568c-0.029,1.664,2.029,1.08,2.324,2.517c-2.207,0.074-2.724,0.526-1.549,1.356
	c-1.869,0.437-2.786-1.67-5.075-1.077c-1.48,0.385-7.915,3.143-9.061,1.271c0.271-0.672,0.592-1.317,0.968-1.937
	c-2.496,0.133-11.858,3.678-11.62,3.874c-2.006-0.235-2.653,0.604-1.937,2.517c-2.445,0.448-4.654-0.223-6.587-1.742
	c1.078-0.888,2.306-1.21,3.683-0.968c-1.219-3.328-6.03-2.559-8.716-2.52c3.212,0.864,4.082,5.377,4.258,8.135
	c-0.893-2.003-3.232-1.904-4.973-1.398c-4.836,1.408-4.784,2.006-2.579,5.659c-3.162,0.284-6.612-0.474-9.684-1.161
	c1.117,2.353,3.612,0.617,4.454,3.098c-3.733,0.975-13.833-6.181-15.685-9.876c5.101,1.509,9.993,3.45,15.372,2.788
	c1.865-0.229,8.104-1.371,4.414-4.148c-1.976-1.487-20.978-5.466-20.951-6c1.668,0-5.411-0.678-6.582-1.354
	c7.579-0.526-0.663-1.807-3.102-1.356c-0.333-0.637-0.204-1.153,0.388-1.549c-7.445-2.662-0.363,1.988-4.064,1.742
	c0.43-2.717-0.733-2.458-3.489,0.776c1.738-3.842,0.22-2.765-2.411-1.014c-2.318,1.542-7.777-1.157-4.56,1.788
	c-1.34-0.513-4.478,0.513-6.187,0.605c-1.559,0.083-7.741,2.985-3.109,1.719c-0.08,0.195-3.303,3.431-2.905,3.293
	c-0.424-0.276-0.886-0.469-1.375-0.6c0.024,0.227-1.75,1.199-2.11,1.761c3.449-0.747-3.091,2.541-4.21,3.617
	c-1.891,1.819-2.581,5.017-3.537,6.261c-1.675,0.245-3.763,1.646-5.261,2.354c-2.363,1.115-6.138,1.871-4.035,3.456
	c-6.438-0.519-7.556,4.447-4.454,9.489c-0.975-0.348-1.492-0.025-1.55,0.968c2.147,0.824,3.047,0.776,0.775,1.163
	c2.205,7.538,9.071-0.528,12.781-1.744c1.449,7.264,9.126,8.161,0.775,12.783c0.489,0.398,1.885,2.189,2.324,2.322
	c-0.839-0.079-1.549,0.179-2.131,0.775c5.37,3.541,2.428-3.362,4.455-4.261c0.778,2.349,1.417,3.055,4.454,1.744
	c-1.34-2.232,1.846-2.283,3.246-2.96c3.222-1.558,1.169-6.025,3.514-7.384c4.464-2.585,4.833-3.566,0.524-7.002
	c-4.907-3.913,2.734-7.001,5.004-8.538c1.201-0.812,3.163-1.879,3.979-3.166c-1.355-1.541-0.495-2.944,1.177-3.62
	c1.646-0.666,8.607-1.399,7.348,2.264c-4.165,1.507-9.655,5.347-8.39,9.778c3.766,13.194,17.268-1.952,22.718,6.104
	c-2.245,0.024-3.768-0.033-5.422,1.549c-4.04-0.589-8.734-1.21-12.201,1.549c2.752-0.225,0.317,4.242,3.873,1.937
	c-1.432,3.017-1.228,6.459-4.648,1.937c-4.23,0.086-3.396,4.533-3.601,7.388c-0.299,4.144-17.451,6.213-19.833,4.427
	c0.775-0.403,0.941-0.795,0.497-1.176c-2.611,0.109-8.331,4.577-5.726,0.4c-3.798-0.477-3.81-1.141-4.26-3.293
	c0.586,1.319,1.555,1.707,2.905,1.163c0.34-3.579-1.777-0.173-2.905-1.937c3.85-0.107,3.2-6.561,2.13-6.973
	c-0.381,0.384-5.837,4.123-6.198,3.485c-1.521,3.561,1.664,4.657,1.883,7.754c0.389,5.493-6.07,1.207-8.661,3.285
	c0.012,0.002-0.942,2.396-2.13,0.775c-2.551,6.103-4.672,4.959-9.555,9.066c-0.985,0.83-2.318,2.344-3.614,2.747
	c-2.089,2.817-4.224-1.573-5.81,0.195c0.751,1.042,1.074,2.205,0.968,3.486c-2.497,0.154-7.115-2.048-8.909,0.773
	c1.567,0.747,1.567,1.199,0,1.356c14.111-0.137,8.45,18.558,4.261,15.881c-5.104,1.058-17.712-4.764-17.964,3.922
	c-0.187,6.446-1.764,12.5-1.016,18.93c2.323-1.917,4.775-0.682,6.674,1.022c3.676,3.299,2.657,1.081,6.498,0.222
	c3.911-0.873,12.455-2.413,13.377-7.789c0.367-2.145-1.671-2.777,0.978-5.007c2.375-1.999,5.664-2.983,7.767-5.298
	c1.372-1.511,0.008-5.426,2.897-5.408c2.319,0.014,4.492,0.952,6.802,0.081c2.356-0.886,9.309-5.398,11.399-2.212
	c1.501,2.29-0.189,2.865,2.198,4.61c2.16,1.581,4.216,3.297,6.382,4.873c2.822,2.052,9.985,4.643,7.339,9.785
	c-1.213,2.357-10.057-1.046-9.949,2.604c2.888,0.796,5.025,3.298,8.133,3.485c-0.94-0.706,0.565-4.546,1.163-5.229
	c-0.244,1.789,2.605-1.303,2.813-1.523c1.21-1.418,0.899-6.077,0.097-5.579c1.144-0.709,3.767,1.451,5.03,1.487
	c-1.203-4.376-6.82-4.02-6.584-7.554c-3.204,0.434-13.42-7.422-11.327-11.423c2.323-4.438,5.546,1.274,6.292,2.128
	c0.037-0.254-1.242-2.968,0-2.517c0.645,1.649,0.903,1.843,0.774,0.581c1.61,5.014,4.494,5.441,7.94,7.747
	c-2.667-1.521-2.979,0.33-0.191,0.508c1.377,0.088,3.026,0.665,4.123,1.722c0.888,0.856,2.78,7.135,3.312,9.08
	c2.716,2.595,1.285,4.391,5.537,4.959c-3.921,3.188,2.205,5.722,2.518,6.778c0.194-0.452,0.39-0.904,0.584-1.356
	c2.395,1.912,2.395,1.008,0-2.712c0.94,0.182,1.449,0.35,1.695,0.454c-0.284-0.203-0.793-0.731-0.924-1.81
	c1.171-0.138,2.206,0.184,3.103,0.968c0.14-0.806,0.035-1.333-0.125-1.662c-0.969-0.474-0.351-0.715,0,0
	c0.31,0.151,0.777,0.325,1.477,0.5c-0.096-0.743-2.958-2.944-4.325-4.109c-0.073,0.087-0.174,0.167-0.321,0.235
	c0.103-0.123,0.168-0.235,0.204-0.337c-0.396-0.341-0.641-0.581-0.592-0.631c0.495,0.116,0.692,0.326,0.592,0.631
	c0.038,0.034,0.074,0.066,0.117,0.102c0.963-1.123-3.713-3.714-0.9-5.187c0.066-0.067,2.805,5.594,1.353,1.161
	c4.768,2.223-1.22-2.608,2.905,0.581c-0.08-0.557-2.697-1.565-1.937-2.322c2.068-0.143,7.136-1.379,8.715,0.581
	c-2.35,2.14-2.527,3.66,0.584,3.874c-0.77,0.992-0.576,1.767,0.579,2.324c-2.686-0.206,2.496,3.967-1.937,0.581
	c-0.49,1.111,2.29,3.637,2.854,4.228c1.347,0.66,1.364,1.252,0.051,1.775c3.739-0.407,3.87-0.019,0.39,1.163
	c0.763,0.053,8.296,1.361,8.5,1.062c2.589-3.799,4.951,0.567,8.573,1.006c3.037,0.369,5.316-2.958,8.683-2.844
	c0.229,4.998-0.766,24.887-10.439,19.738c-4.197-2.233-5.852,2.392-10.792,1.494c-5.593-1.016-10.691-3.87-15.849-6.115
	c-2.357-1.026-4.787-1.496-7.225-0.216c-4.218,2.214,0.028,6.783-4.139,7.841c-7.293,1.852-12.768-8.824-19.551-8.725
	c-4.407,0.064-8.58-3.211-6.454-6.417c0.049-0.076,0.372-6.762,0.978-7.366c-0.752-0.087-1.503-0.047-2.253,0.153
	c0.962-0.852-11.119-0.934-13.394-0.81c-4.452,0.243-9.153,0.386-13.346,2.017c-5.224,2.033-12.177,7.336-17.963,3.473
	c-3.994-2.666-5.146,3.762-8.736,6.503c-6.26,4.779-4.373,12.054-9.753,16.753c-1.991,1.738-4.705,2.064-6.659,3.725
	c-1.511,1.284-1.93,3.293-3.473,4.632c-2.619,2.273-5.036,6.611-6.513,9.734c-2.162,1.956-4.018,6.832-4.027,9.998
	c0.392-1.098,3.874,4.297,1.75,4.013c1.009,3.933,0.947,8.361-0.25,12.245c-1.565,5.074-3.475,4.311-2.306,9.285
	c0.634,2.698,0.904,7.278,4.88,6.551c-1.103,1.471,1.123,2.99,2.733,5.693c2.838,4.767,3.394,5.795,4.626,9.801
	c5.317,1.71,8.343,7.198,13.19,9.722c5.459,2.841,11.961-2.421,18.137-0.891c5.304,1.314,11.191-3.059,16.229-4.436
	c6.961-1.906,7.669,1.426,10.568,6.158c2.16,3.529,7.191-2.217,10.165,0.773c4.474,4.499-1.217,11.535,2.399,14.818
	c-2.534,0.329-3.254,2.984-1.399,6.055c3.766,6.238,7.678,12.449,10.736,19.076c1.188,2.576,1.864,4.629,0.927,7.402
	c0.935,3.105,2.724,6.146,2.377,9.525c-0.254,2.477-2.7,3.219-3.48,5.408c-1.061,2.98-0.892,6.486-2.963,9.082
	c-0.556,6.639,2.447,12.439,5.528,18.076c2.915,5.336,2.758,11.234,4.014,17.02c1.502,6.924,6.222,12.449,8.543,19.049
	c0.251,0.719,1.852,7.203,0.119,5.697c0.452,2.018,0.968,4.02,1.549,6.006c0.125-0.105,0.194-0.209,0.234-0.312
	c-0.144-0.15-0.225-0.318-0.146-0.527c0.174,0.176,0.214,0.352,0.146,0.527c1.619,1.676,16.074-0.256,17.464-0.576
	c10.867-2.5,17.574-9.463,23.436-18.951c2.027-3.283,1.878-11.037,5.505-12.604c3.406-1.473,7.804-5.18,6.774-9.176
	c-0.548-2.127-4.111-8.08-2.091-10.092c-0.288-0.973,8.132-6.807,9.07-7.535c3.334-2.58,8.688-4.445,9.753-9.014
	c0.862-3.705-0.158-8.209-0.255-11.965c-0.228-8.77-7.849-18.773-2.72-28.123c5.076-9.256,13.644-16.02,21.031-23.325
	c4.606-4.552,7.758-9.347,10.49-15.183c1.243-2.651,2.574-5.324,3.354-8.163c0.753-2.738-0.272-6.35,1.373-8.826
	c-7.073-0.569-21.763,10.271-26.726,0.775c5.734-2.391-9.129-16.529-9.49-12.201c-2.429-4.962-3.665-9.695-6.845-14.319
	c-2.425-3.526-0.737-9.087-4.594-11.814c-1.508-0.911-2.192-2.197-2.051-3.86c0.254-2.778-2.396-4.613-3.738-6.996
	c-1.587-2.815-8.276-13.307-7.174-15.689c1.396,2.821,2.421,6.399,5.615,7.747c1.127-1.943,0.162-4.426,1.743-6.198
	c-3.556,8.19,12.095,18.416,13.799,27.167c0.973,4.993,5.112,6.028,7.017,10.333c2.085,4.716,3.711,7.925,5.447,12.917
	c1.363,3.925,1.148,12.115,7.359,8.819c5.381-2.854,10.914-5.249,16.577-7.545c4.35-1.765,7.429-6.014,11.841-7.161
	c3.582-0.93,6.043-8.326,10.198-7.153c-0.672-1.588-1.195-4.758,0.775-5.81c-0.444,0.821-0.188,1.145,0.773,0.969
	c0.52-2.999,5.04-7.025,1.763-9.688c-2.065-1.676-4.759-2.237-6.924-3.75c-3.022-2.113-0.874-6.584-2.97-8.059
	c-5.034,5.988-6.245,9.403-14.915,7.359c1.302-1.355,1.629-6.007-0.775-6.585c-1.602,1.081-0.983,3.5-0.968,5.037
	c-2.213-4.989-5.007-8.877-8.307-13.338c-3.923-5.303,0.937-3.116,0.947-6.609c1.504,2.669,2.54-0.767,4.026,2.227
	c1.221,2.451,3.333,5.288,5.641,6.827c2.434,1.622,10.696,5.486,10.861,4.503c0.872-0.047,5.409-1.459,1.553-1.551
	c2.067-1.366,6.697,4.803,10.058,5.387c5.896,1.024,11.6,0.738,17.347,0.162c3.567-0.357,5.536,0.867,7.806,2.33
	c1.6,1.032,1.85,3.251,3.388,4.327c2.01,1.407,5.339,0.788,7.105,2.319c-0.218,1.105-3.109,3.239-3.874,1.356
	c0.428,3.098,4.087,6.558,7.363,6.039c3.362-0.532,1.119-4.85,3.481-5.07c-0.396,0.663,1.395,7.107,1.694,8.286
	c1.415,5.544,3.14,11.025,4.971,16.445c2.26,6.688,4.652,13.717,7.816,20.023c5.574,11.105,4.571-1.034,10.503,1.337
	c-1.67-1.781-1.672-3.37,1.161-3.676c-0.341-3.192-0.706-6.38-0.882-9.585c-0.158-2.877-0.556-6.546,0.638-9.282
	c0.819-1.883,4.645-1.909,5.859-3.755c2.224-3.384,6.986-10.293,11.622-11.658c0.568-1.343,0.822-5.133,2.076-5.611
	c2.601-0.99,2.665,0.474,4.815-0.075c1.064-0.272,4.004-2.924,5.309-1.48c2.665-1.76-2.247-2.221-0.581-4.066
	c1.347,3.717,9.61,7.359,9.491,11.425c0.271,0.074,1.347,1.737,1.454,2.054c3.057,3.077,3.883,7.71,3.386,11.891
	c1.022-1.164,9.068,1.304,7.554-4.842c8.951,10.347,6.32,21.812,6.973,33.893c1.377-0.17-0.238-1.827,0.969-2.129
	c0.493,2.387,3.378,4.493,4.791,6.335c2.445,3.193-0.094,3.87,0.635,6.839c0.967,3.949,8.745,12.46,13.358,11.613
	c-0.596-3.923-2.167-10.271-4.182-13.682c-2.031-3.444-5.734-4.509-7.858-7.35c-1.484-1.988-5.238-7.993-5.114-9.876
	c0.099-1.481,1.589-11.933,3.257-12.108c1.063,0.679,1.434,1.719,1.116,3.122c2.696-0.739,3.425,0.407,5.034,2.322
	c-0.531-2.132,2.262,2.764,2.52,3.874c1.146-0.258,0.333-0.379,1.354-0.968c1.39,1.731,0.538,2.134,3.502,3.693
	c2.237,1.178,1.572,3.471,0.759,5.411c2.336,0.087,5.895-4.476,5.422-6.003c12.02,2.22,6.658-15.597,2.919-19.919
	c-2.756-3.186-8.381-6.981-8.973-11.432c-0.794-5.964,6.485-9.874,11.479-8.159c-1.839,1.245,0.953,5.677,2.517,3.486
	c-0.451-0.646-0.903-1.291-1.355-1.937c2.479-1.044,10.968-3.959,8.908-6.391c2.27-0.376,0.683,0.618,1.917,1.655
	c1.827,1.536,0.774-1.748,2.15-1.655c-0.386,0.362,6.709-0.878,6.003-1.549c-2.15-4.901,10.52-5.571,5.229-10.264
	c4.316-0.577,1.876-10.942,6.459-6.96c-0.815-0.759-1.613-1.538-2.393-2.335c1.991,0,0.509-0.9,0-1.551
	c2.438-1.05-0.089-3.025-3.291-3.486c0.288-1.476,1.191-2.379,2.711-2.71c-1.466-1.798-3.749-4.114-6.392-3.488
	c1.851-1.335,3.761,0.879,5.617,0.775c-3.233-2.198-8.979-7.99-10.774-11.429c-1.532-2.934,1.995-9.075,5.546-6.776
	c-0.952-4.892-18.985-0.364-16.85-8.327c4.1,0.872,3.65-2.246,6.421-4.807c5.69-5.26,2.759,4.716,3.649,6.355
	c3.666,0.578,6.388-7.932,10.81-2.17c2.143,2.793-1.245,3.979,2.557,4.688c2.296,0.429,4.815,1.514,6.001,3.679
	c-2.841,0.517,1.587,7.579,2.281,9.418c-0.108-0.282,2.564-0.4,2.946-0.315c-0.257-0.779,1.69-1.162,0.194-1.744
	c9.516-2.429-0.238-11.657-5.562-14.949c-2.986-1.846-1.193-3.476,1.299-5.391c0.278-0.214,1.795-7.573,2.326-9.29
	c4.595,8.071,9.75-5.045,10.667-8.853c2.188-9.089-1.749-18.938-8.73-24.845c3.146,0.747-5.824-4.366-8.909-3.873
	c1.73,0.611-0.444,3.263-1.742,2.129c0.261-1.908-2.603-3.736-1.355-0.968c-1.222-0.033-6.911-2.461-7.553-3.486
	c4.668-3.655,2.174-14.72,9.767-14.777c7.319-0.056,14.126-1.836,20.638,0.64c-6.175,0.825,6.055,0.051,7.554,0.193
	c-1.115-3.585-5.24,0.302-3.914-6.117c1.085-5.264,9.741-1.809,11.273,1.468c1.721-0.998,1.343-4.08,4.068-3.291
	c-1.133-0.862-2.166-1.831-3.1-2.905c1.745-0.73,3.425-0.601,5.036,0.386c-5.001-1.961,1.108,4.15,1.742,4.842
	c-3.433,1.939-2.956,6.174-3.099,9.491c-2.74-1.9-0.516,1.113-2.904,0.388c3.608,10.28,14.722,15.195,21.303,23.24
	c1.621-2.229,0.855-5.164-0.968-6.973c-0.004-0.002,2.375-0.756,2.962-0.688c-3.509-2.716-2.011-2.454,0.33-4.735
	c-0.568-1.603-3.025-5.292-4.455-6.197c2.213-0.912-0.05,1.912,2.712,1.356c-0.133-1.921-5.902-6.347-7.747-6.391
	c-2.64,1.721-3.438-5.783-4.842-6.778c2.275-0.165,3.019,1.7,4.405-0.776c-1.044,1.865,5.01-0.223,4.65-0.053
	c2.427-1.148,5.702,0.686,8.18,0.83c-1.101-1.994,1.011-4.645,2.225-5.93c3.663-3.88,5.203-1.478,9.783-1.624
	c-3.162-4.482-9.229-4.616-13.557-7.359c2.017,0.718,3.63,0.202,4.842-1.549c-1.559-0.797-3.699-0.755-4.454-2.712
	C862.599,48.278,880.401,56.22,883.511,53.181z M523.095,307.076c0.757-2.5-0.771-5.332-1.984-7.826
	c-0.053-0.033-0.09-0.078-0.146-0.113c0.012-0.047,0.014-0.094,0.024-0.143c-0.313-0.652-0.606-1.289-0.814-1.879
	c-1.332-3.787-0.32-5.184-0.953-8.244c1.224,3.148,2.572,6.676,1.768,10.123c0.042,0.086,0.08,0.17,0.121,0.256
	c2.919,1.873,2.972,5.898,4.116,8.795C524.515,307.725,523.806,307.4,523.095,307.076z M536.997,327.725
	c0.145,0.062,0.623,0.268,0.623,0.268c-4.747-2.043-2.058-12.412-3.486-17.234c4.844,4.512,0.642,11.904,3.486,17.234
	C537.257,327.836,537.075,327.758,536.997,327.725z M528.131,277.448c1.522-0.608,3.917-2.237,5.581-0.923
	c0.056,0.042,2.622,1.201,3.085,1.209c0.018-0.032,0.046-0.077,0.05-0.093c0.061,0.072,0.026,0.095-0.05,0.093
	c-0.517,0.959-6.772,8.795-3.051,6.879c-1.497,2.9-5.195-1.127-6.003,1.936C525.739,285.361,527.349,279.022,528.131,277.448z
	 M534.909,130.841c-4.626-4.973-23.854,5.344-24.709-2.944c-0.547-5.295,4.099-15.454,10.377-15.067
	c-1.604,0.758,4.244,1.657,4.842,1.742c-1.246,0.304-2.279,0.95-3.098,1.937c2.072,0.09,2.344,1.309,3.357,2.681
	c0.988,1.339,7.229-1.929,8.263-2.681c-1.581-2.122-6.142,1.786-6.005-2.71c2.082,1.142,9.81-3.453,12.396-3.681
	c-1.038,1.152-2.328,1.797-3.873,1.937c2.274,3.596,0.689,3.611-2.518,5.229c4.853,1.866,10.419,4.425,14.035,8.248
	C555.211,133.177,538.127,131.435,534.909,130.841z M582.358,147.302c0,0-0.074-0.013-0.189-0.034
	C582.237,147.281,582.286,147.289,582.358,147.302c-4.117-0.75-10.854-3.879-10.071-9.103c1.736,1.063,1.235-6.526,3.485-3.679
	c-1.208-3.941-19.862-14.825-10.211-19.689c2.788-1.404,7.022-5.031,11.164-4.35c2.909,0.479,2.4,2.998,3.202,5.113
	c0.761,2.005,2.599,0.186,3.788,2.27c-1.284-0.433-2.817-1.034-5.759-1.257c-5.918-0.448,0.588,3.525-5.478,2.42
	c-0.297,1.577,5.243,5.876,6.663,6.525c1.994,0.911,3.902,7.94,3.989,10.13c0.584-0.665,1.165-0.607,1.747,0.173
	c0.773,1.001-1.937,0.717,0.751,2.28c2.273,1.322,1.823,5.833,2.344,8.006C586.07,146.377,584.198,146.765,582.358,147.302z
	 M720.055,90.946c-4.361,1.06-3.853,6.104-9.103,3.874c5.771-0.068,9.305-8.948,6.778-13.557c2.684-2.619,2.298,7.338,2.324,7.164
	C722.021,88.521,722.021,89.36,720.055,90.946z"/>
<path opacity="0.5" fill="#939090" d="M537.62,327.992c0,0-0.479-0.205-0.623-0.268C537.075,327.758,537.257,327.836,537.62,327.992
	z"/>
<path opacity="0.5" fill="#939090" d="M537.62,327.992c0,0-0.479-0.205-0.623-0.268C537.075,327.758,537.257,327.836,537.62,327.992
	z"/>
<path opacity="0.5" fill="#939090" d="M582.358,147.302c-0.072-0.013-0.121-0.021-0.189-0.034
	C582.284,147.289,582.358,147.302,582.358,147.302z"/>
<path opacity="0.5" fill="#939090" d="M582.358,147.302c-0.072-0.013-0.121-0.021-0.189-0.034
	C582.284,147.289,582.358,147.302,582.358,147.302z"/>
<path opacity="0.5" fill-rule="evenodd" clip-rule="evenodd" fill="#939090" d="M463.059,10.379
	c-0.516,0.258-1.032,0.517-1.549,0.775c2.544,1.838,8.186,2.524,10.846,0.581c-1.24,1.636-4.386,1.857-6.198,1.549
	c-0.388,1.843,2.298,0.271,2.711,1.356c-4.313-0.743,2.87,3.502,5.036,2.518c0.369-2.433,4.728-6.782,7.359-5.035
	c-2.867-0.535,0.554,0.57,0,2.905c3.025-0.11,5.218,0.174,8.134-0.968c-1.63-0.995-15.398-4.158-14.331-5.037
	c-3.059-1.221-5.22-1.345-2.905,2.132c-2.444-1.31-6.792-0.388-4.842-2.325c-2.194,0.202-4.389,0.396-6.584,0.581
	C461.297,11.177,462.998,10.375,463.059,10.379C462.657,10.859,463.059,10.379,463.059,10.379z"/>
<path opacity="0.5" fill-rule="evenodd" clip-rule="evenodd" fill="#939090" d="M943.74,410.301
	c0.938-1.158,1.262-2.449,0.969-3.873c-0.688-0.293-1.191,2.371-1.937,2.518c2.377-2.438,0.571-8.311-1.356-10.068
	c-2.027,1.521-1.411,6.77,0.195,6.582c-1.399,3.416-2.851,6.709-5.663,9.227c-4.144,3.707,0.464,4.5-4.796,8.592
	c-0.091-1.084,19.947-7.07,19.947-12.781C948.501,409.795,945.048,411.725,943.74,410.301
	C945.323,408.773,943.74,410.301,943.74,410.301z"/>
<path opacity="0.5" fill-rule="evenodd" clip-rule="evenodd" fill="#939090" d="M825.411,306.691
	c-3.945,0.004-13.225,3.027-12.589,7.164c2.296-0.809,4.446-1.902,6.449-3.283c0.731-0.473,9.08-3.887,4.579-3.879
	C824.257,306.691,825.018,306.533,825.411,306.691C821.466,306.695,825.411,306.691,825.411,306.691z"/>
<path opacity="0.5" fill-rule="evenodd" clip-rule="evenodd" fill="#939090" d="M893.774,298.945
	c3.186,0.283,15.598-5.621,8.135-7.168c-0.471,4.201-5.434,4.539-4.261,3.102c-0.321-0.152-4.91,1.516-6.003,1.547
	C891.646,297.316,893.796,298.955,893.774,298.945C899.03,299.416,893.774,298.945,893.774,298.945z"/>
<path opacity="0.5" fill-rule="evenodd" clip-rule="evenodd" fill="#939090" d="M813.403,280.157
	c0.923,1.207,1.311,0.947,1.161-0.771c-0.479-0.827-2.534,0.015-1.742,0.386c-3.667-1.316-6.079,4.346-9.084-0.186
	c-3.263-4.921,17.253-1.479,16.25-8.529c-1.613,0.063-2.312,1.838-3.451,2.447c-2.527,1.354-5.559-0.39-8.171-0.318
	c0-2.05-3.291,0.23-3.871,0.39c-1.954,2.342-0.906,4.868-2.253,6.778c-1.22,1.729-1.85,4.077-2.228,6.12
	c-0.819,4.43,1.569,1.436,2.197,3.938c0.462,1.848-1.028,3.781-1.04,5.625c-0.017,2.648,2.379,0.385,2.3,0.268
	c0.04,0.059,0.42,1.277,0.438,1.227c0.546-1.607-0.303-11.062,1.87-11.314c0.255-0.029,2.193,7.975,2.371,7.977
	c6.987,0.072,1.411-8.117-0.17-10.74C809.721,284.453,812.956,280.837,813.403,280.157
	C814.209,281.404,813.403,280.157,813.403,280.157z"/>
<path opacity="0.5" fill-rule="evenodd" clip-rule="evenodd" fill="#939090" d="M217.876,211.02
	c-1.044-1.026-2.271-1.736-3.68-2.131c0.769,0.514,1.221,0.321,1.356-0.581c-2.905,1.143-11.116-5.486-13.17-0.968
	c1.877,0.714,2.663,1.968,3.099,3.874c-1.401,0.467-5.797-1.345-6.621,0.241c-1.239,2.386,10.596-0.687,8.557,3.439
	c3.599-1.949,1.216-2.657,5.581-2.286C216.591,212.914,217.845,211.016,217.876,211.02
	C217.089,209.233,217.876,211.02,217.876,211.02z"/>
<path opacity="0.5" fill-rule="evenodd" clip-rule="evenodd" fill="#939090" d="M767.891,211.988
	c5.349-4.796-1.612-7.97-4.578-3.347C760.54,212.961,769.233,211.164,767.891,211.988
	C772.742,207.638,767.891,211.988,767.891,211.988z"/>
<path opacity="0.5" fill-rule="evenodd" clip-rule="evenodd" fill="#939090" d="M798.878,199.205
	C804.568,177.303,790.22,196.728,798.878,199.205C799.441,197.036,798.878,199.205,798.878,199.205z"/>
<path opacity="0.5" fill-rule="evenodd" clip-rule="evenodd" fill="#939090" d="M455.506,139.363
	c0.41-2.426,2.303,1.065,2.994-3.394c0.201-1.295,0.514-5.905-2.27-4.777C454.158,132.031,453.299,138.195,455.506,139.363
	C455.623,138.669,455.506,139.363,455.506,139.363z"/>
<path opacity="0.5" fill-rule="evenodd" clip-rule="evenodd" fill="#939090" d="M844.002,123.287
	c-1.965-0.532-2.982-1.082-3.485-3.291c-1.512,3.682-11.39-2.556-12.781-3.874c1.91,2.478,6.837,8.601,0.968,7.552
	c0.293,0.583,3.361,10.736,5.615,5.229c-0.996-1.163-3.516-0.487-3.679-2.517c3.204-0.37,6.346,1.181,9.296,2.129
	C838.12,124.857,843.312,125.026,844.002,123.287C842.564,122.898,844.002,123.287,844.002,123.287z"/>
<path opacity="0.5" fill-rule="evenodd" clip-rule="evenodd" fill="#939090" d="M84.827,100.242
	c2.302,0.544,0.585,0.475,2.711,0.773c0.357,1.363-1.314,2.988,2.13,3.293c-0.972-0.038,2.372,2.202,3.68,1.744
	C93.375,100.324,84.592,94.517,84.827,100.242C85.184,100.326,84.827,100.242,84.827,100.242z"/>
<path opacity="0.5" fill-rule="evenodd" clip-rule="evenodd" fill="#939090" d="M188.051,18.707
	c0.635,1.669,7.124-1.784,8.715-1.742c-2.372,1.077-2.027,1.436,1.034,1.077c2.309-0.469,4.162-2.425,6.519-2.626
	c-6.703-1.681-14.982,1.312-20.722,3.679C184.21,19.073,188.331,18.61,188.051,18.707C188.445,19.742,188.051,18.707,188.051,18.707
	z"/>
</svg>
