<svg version="1.1" id="catapult-logo" xmlns="http://www.w3.org/2000/svg" xmlns:xlink="http://www.w3.org/1999/xlink" x="0px" y="0px" width="192px" height="54px" viewBox="0 0 192 54" enable-background="new 0 0 192 54" xml:space="preserve">
<g>
	<path fill="#FFFFFE" d="M38.183,35.555h-0.004c-0.215-0.18-0.498-0.271-0.777-0.244c-0.26,0.024-0.502,0.146-0.678,0.336c-0.001,0-0.003,0.003-0.005,0.003c-2.399,2.66-5.888,4.333-9.772,4.333c-7.239,0-13.107-5.812-13.107-12.983c0-7.17,5.869-12.982,13.107-12.982c3.888,0,7.381,1.678,9.78,4.342c0.001,0,0.002,0,0.002,0.001c0.175,0.187,0.415,0.305,0.673,0.33c0.288,0.027,0.578-0.067,0.795-0.258l0.005-0.005c0,0,0.001,0,0.001,0l8.583-7.54c0.492-0.608,0.971-1.198,0.289-1.954c-1.354-1.5-2.536,1.604-4.04,0.255c-1.504-1.35,1.469-2.846-0.168-4.031c-1.638-1.187-2.146,2.094-3.898,1.085c-1.753-1.008,0.843-3.088-1.005-3.908c-1.85-0.821-1.662,2.493-3.587,1.87c-1.925-0.623,0.181-3.195-1.799-3.614c-1.979-0.419-1.106,2.783-3.118,2.573C27.447,2.952,28.969,0,26.946,0c-2.024,0-0.35,2.81-2.513,3.164c-1.997,0.327-1.138-2.992-3.118-2.573c-1.98,0.419,0.126,2.992-1.799,3.614c-1.924,0.624-1.737-2.691-3.586-1.87c-1.848,0.819,0.747,2.899-1.006,3.908c-1.752,1.009-2.26-2.272-3.897-1.085c-1.638,1.185,1.335,2.681-0.168,4.031c-1.504,1.35-2.686-1.755-4.04-0.255c-1.354,1.499,1.865,2.346,0.676,3.979c-1.189,1.632-2.992-1.16-4.005,0.588c-1.011,1.747,2.315,1.908,1.492,3.751c-0.823,1.843-3.169-0.514-3.795,1.406c-0.625,1.918,2.663,1.387,2.241,3.359c-0.42,1.974-3.206,0.155-3.417,2.161C-0.202,26.185,2.902,24.983,2.902,27c0,2.018-3.104,0.816-2.892,2.822c0.211,2.008,2.997,0.189,3.417,2.162c0.422,1.973-2.866,1.442-2.241,3.361c0.626,1.918,2.972-0.438,3.795,1.404c0.823,1.844-2.503,2.004-1.492,3.753c1.013,1.746,2.815-1.045,4.005,0.588c1.189,1.632-2.03,2.479-0.676,3.977c1.354,1.501,2.536-1.604,4.04-0.254c1.503,1.35-1.47,2.846,0.168,4.032c1.637,1.186,2.145-2.095,3.897-1.087c1.753,1.01-0.842,3.088,1.006,3.909c1.849,0.821,1.662-2.494,3.586-1.869c1.925,0.623-0.181,3.194,1.799,3.613c1.98,0.419,1.106-2.784,3.118-2.573C26.445,51.049,24.922,54,26.946,54c2.023,0,0.5-2.951,2.513-3.163c2.012-0.211,1.139,2.992,3.118,2.573c1.98-0.419-0.126-2.99,1.799-3.613c1.925-0.625,1.737,2.69,3.587,1.869c1.848-0.821-0.748-2.899,1.005-3.909c1.753-1.008,2.261,2.273,3.898,1.087c1.637-1.186-1.336-2.682,0.168-4.032c1.503-1.35,2.685,1.755,4.04,0.254c0.683-0.757,0.202-1.345-0.29-1.955L38.183,35.555z"/>
	<g>
		<path fill="#FFFFFE" d="M51.644,32.001c-2.827,0-4.934-2.197-4.934-4.987c0-2.763,2.065-5.014,5.003-5.014c1.788,0,2.869,0.621,3.797,1.506l-1.095,1.257c-0.776-0.718-1.608-1.202-2.717-1.202c-1.856,0-3.201,1.52-3.201,3.425c0,1.908,1.344,3.455,3.201,3.455c1.192,0,1.954-0.482,2.786-1.256l1.095,1.105C54.568,31.338,53.459,32.001,51.644,32.001z"/>
		<path fill="#FFFFFE" d="M68.006,31.835h-1.802L65.221,29.5h-4.587l-0.998,2.335h-1.747l4.269-9.739h1.58L68.006,31.835zM62.92,24.127l-1.663,3.868h3.34L62.92,24.127z"/>
		<path fill="#FFFFFE" d="M73.829,31.835H72.11v-8.094h-3.076v-1.576h7.871v1.576h-3.076V31.835z"/>
		<path fill="#FFFFFE" d="M88.037,31.835h-1.802L85.251,29.5h-4.587l-0.998,2.335H77.92l4.269-9.739h1.58L88.037,31.835zM82.951,24.127l-1.663,3.868h3.34L82.951,24.127z"/>
		<path fill="#FFFFFE" d="M94.619,28.727h-1.926v3.108h-1.705v-9.67h3.825c2.259,0,3.686,1.271,3.686,3.246
			C98.5,27.594,96.753,28.727,94.619,28.727z M94.675,23.713h-1.982v3.48h1.982c1.289,0,2.091-0.705,2.091-1.741C96.766,24.306,95.949,23.713,94.675,23.713z"/>
		<path fill="#FFFFFE" d="M109.712,27.649c0,2.888-1.635,4.338-4.17,4.338c-2.523,0-4.131-1.45-4.131-4.255v-5.567h1.705v5.498c0,1.796,0.928,2.763,2.453,2.763c1.511,0,2.439-0.912,2.439-2.694v-5.567h1.705V27.649z"/>
		<path fill="#FFFFFE" d="M113.552,22.165h1.706v8.124h5.099v1.546h-6.805V22.165z"/>
		<path fill="#FFFFFE" d="M126.228,31.835h-1.719v-8.094h-3.076v-1.576h7.87v1.576h-3.075V31.835z"/>
		<path fill="#FFFFFE" d="M135.934,31.835h-3.617v-9.67h3.617c3.049,0,5.155,2.086,5.155,4.82C141.089,29.722,138.983,31.835,135.934,31.835z M135.934,23.713h-1.914v6.576h1.914c2.037,0,3.367-1.369,3.367-3.275
			C139.301,25.108,137.97,23.713,135.934,23.713z"/>
		<path fill="#FFFFFE" d="M151.713,23.685h-5.488v2.514h4.865v1.52h-4.865v2.596h5.558v1.52h-7.261v-9.67h7.191V23.685z"/>
		<path fill="#FFFFFE" d="M158.979,26.227c2.05,0.498,3.118,1.23,3.118,2.846c0,1.823-1.426,2.901-3.464,2.901c-1.483,0-2.883-0.512-4.047-1.547l1.026-1.216c0.929,0.802,1.857,1.258,3.062,1.258c1.054,0,1.719-0.484,1.719-1.23c0-0.704-0.388-1.077-2.19-1.491c-2.064-0.498-3.229-1.105-3.229-2.902c0-1.685,1.386-2.818,3.312-2.818c1.414,0,2.536,0.428,3.52,1.215l-0.915,1.286c-0.873-0.65-1.746-0.996-2.632-0.996c-0.998,0-1.58,0.512-1.58,1.161C156.679,25.453,157.122,25.784,158.979,26.227z"/>
		<path fill="#FFFFFE" d="M167.27,22.165v9.67h-1.705v-9.67H167.27z"/>
		<path fill="#FFFFFE" d="M175.801,32.001c-3.035,0-5.03-2.155-5.03-4.987c0-2.721,2.078-5.014,5.001-5.014
			c1.69,0,2.731,0.47,3.729,1.312l-1.081,1.285c-0.749-0.635-1.482-1.036-2.716-1.036c-1.788,0-3.146,1.548-3.146,3.425c0,2.005,1.316,3.469,3.298,3.469c0.915,0,1.747-0.29,2.342-0.732v-1.809h-2.481v-1.479h4.13v4.062C178.891,31.31,177.519,32.001,175.801,32.001z"/>
		<path fill="#FFFFFE" d="M190.323,22.165H192v9.67h-1.426l-5.35-6.879v6.879h-1.678v-9.67h1.58l5.197,6.687V22.165z"/>
	</g>
</g>
</svg>
